<?xml version="1.0" encoding="utf-8"?>
<!-- Generator: Adobe Illustrator 26.5.2, SVG Export Plug-In . SVG Version: 6.00 Build 0)  -->
<svg version="1.1" id="Capa_1" xmlns="http://www.w3.org/2000/svg" xmlns:xlink="http://www.w3.org/1999/xlink" x="0px" y="0px"
	 viewBox="0 0 299 96.1" style="enable-background:new 0 0 299 96.1;" xml:space="preserve">
<style type="text/css">
	.st0{display:none;}
	.st1{display:inline;fill:#F2F2F2;}
	.st2{display:inline;}
	.st3{fill:#1D2B84;}
	.st4{fill:#0093DD;}
	.st5{fill:#DB251B;}
	.st6{display:inline;fill:#0093DD;}
	.st7{display:inline;fill:#333333;}
	.st8{enable-background:new    ;}
	.st9{fill:#1D1D1B;}
	.st10{fill:#E7343F;}
	.st11{opacity:0.65;fill:#244A9A;enable-background:new    ;}
	.st12{fill:#244A9A;}
	.st13{opacity:0.8;fill:#244A9A;enable-background:new    ;}
	.st14{fill:#FFFFFF;}
</style>
<g class="st0">
	<path class="st1" d="M-69,37.3c0.6-7.4,4.4-27.3,18.1-27.3c7.2,0,20.9,0.7,35.3,0.6c15.8-0.2,30.5,4.1,32.5,4.4
		c6.8,0.8,13,4,17.6,9.1v13.1L-69,37.3z"/>
	<circle class="st1" cx="-13.7" cy="48.1" r="48.1"/>
	<g class="st2">
		<circle class="st3" cx="-13.1" cy="48.3" r="40.7"/>
	</g>
	<g class="st2">
		<path class="st4" d="M-58.6,89.9c10.8-11.4,45-32.3,45-41.9s-13.2-13.8-13.2-13.8h-31.8V89.9z"/>
		<path class="st4" d="M-23.5,33.9H31V89H4c0-12.6,4.2-9.6,4.2-25.8C8.2,49.5-13.3,33.9-23.5,33.9z"/>
		<path class="st5" d="M-43.3,89C-36.7,76.4-8,65-8,51.9s-12-15.6-12-15.6C-8,40.5,2.2,50.1,2.2,62.6S-8,80-8,89H-43.3z"/>
		<path class="st5" d="M27.7,24.9c-4.2-3.5-8.8-5.5-13.4-5.6l0,0H-3.2c-1.6,0.2-3.1,0.9-4.2,2c-5.5-4.2-11.4-6.4-17.2-6.6l0,0h-25
			l0,0h-0.1c-5.3,0.3-10,6.1-12.6,15.7l0.2,1.8h89.8L27.7,24.9z M-39.1,16.5c-1,0.5-1.9,1.1-2.7,1.8l-0.3-0.3
			C-41.3,17.2-40.2,16.7-39.1,16.5L-39.1,16.5z M-36.5,17.2c-1.4,0.7-2.7,1.5-4,2.4C-39.4,18.6-38,17.8-36.5,17.2L-36.5,17.2z
			 M-42.9,16.4c-0.2,0.2-0.4,0.3-0.5,0.5c-0.2-0.2-0.4-0.3-0.6-0.5H-42.9z M-43.3,19.3l0.2,0.2c-0.4,0.4-0.8,0.9-1.2,1.3
			C-44,20.3-43.7,19.8-43.3,19.3L-43.3,19.3z M-47.5,16.6c1,0.3,2,0.8,2.9,1.5c-1.1,1.4-2.1,3-2.9,4.7V16.6z M-50.1,30.4h-10.4
			c1.4-4.8,3.3-8.5,5.5-10.9l4.9,10.8V30.4z M-49.3,27.4l-0.1,0.3l-4.3-9.5c1.1-1,2.6-1.6,4.1-1.8h0.3
			C-49.3,16.4-49.3,27.4-49.3,27.4z M-47.5,30.4v-0.6c1.7-2.9,3.9-5.6,6.6-7.7c1.8,2.6,3.3,5.4,4.5,8.3
			C-36.4,30.4-47.5,30.4-47.5,30.4z M-34.1,30.4h-0.4c-1.3-3.3-3-6.5-5-9.4c1.6-1.1,3.3-2.1,5.2-2.8l0.3,0.2L-34.1,30.4z
			 M-32.4,30.4v-10c2.2,3.1,3.9,6.4,5.2,10H-32.4z M-26.5,27.4c-1.3-3.5-3.3-6.8-5.8-9.7v-0.2c1-0.3,1.9-0.5,2.9-0.7
			c1,0.3,2,0.6,2.9,1.1C-26.5,17.9-26.5,27.4-26.5,27.4z M-19.5,30.4h-5.2V18.8c2,1.3,3.7,2.9,5.3,4.7L-19.5,30.4z M-19.5,20.8
			c-1.5-1.6-3.3-3-5.2-4.1v-0.3c1.8,0.1,3.5,0.3,5.3,0.7L-19.5,20.8z M-17.8,30.4v-4.8c1.1,1.5,2.2,3.1,3.2,4.8L-17.8,30.4z
			 M-13.7,28.5c-1.2-2-2.6-3.9-4.1-5.7v-5.2c1.4,0.5,2.8,1,4.1,1.7V28.5z M-11.9,20.2c1.2,0.7,2.3,1.4,3.4,2.3
			c-1.6,2.1-2.7,4.5-3.4,7V20.2z M-7.3,30.4h-3.1c0.6-2.4,1.7-4.6,3.1-6.6V30.4z M-3.7,30.4h-1.8v-4.1L-3.7,30.4L-3.7,30.4z
			 M-3.1,27.4l-0.1-0.2l0.1,0.1V27.4z M-3.1,24.8c-0.7-0.6-1.3-1.2-2-1.8l-0.4-1c0.7-0.6,1.6-0.9,2.5-1L-3.1,24.8z M-1.3,21.2
			c0.5,0.2,0.9,0.4,1.4,0.7c-0.5,0.7-1,1.3-1.4,2.1V21.2z M-1.3,30.3V30l0.3-0.5l0.7,0.8H-1.3z M1.9,30.3C1.3,29.5,0.6,28.7,0,28
			c0.9-1.1,1.8-2.1,2.9-3.1C4,26.6,5,28.4,5.8,30.3H1.9z M7.4,29.7c-0.9-2-1.9-4-3.2-5.8c1-0.7,2-1.3,3.1-1.7L7.4,29.7z M9.2,30.3
			v-6.1c1.2,1.9,2.2,3.9,3,6.1H9.2z M12.7,27c-0.9-2-2-3.8-3.4-5.4c0.5-0.2,1.1-0.3,1.7-0.4c0.6,0.2,1.2,0.4,1.8,0.7L12.7,27z
			 M17.6,30.3h-3.1v-7.5c1.1,0.8,2.2,1.8,3.1,2.8V30.3z M17.6,23.1c-0.8-0.8-1.8-1.5-2.7-2.2c0.9,0.1,1.8,0.2,2.7,0.4V23.1z
			 M19.2,30.4V28c0.5,0.8,1.1,1.6,1.6,2.5L19.2,30.4z M21.5,28.2C20.8,27.1,20,26,19.2,25v-3.1c0.8,0.3,1.6,0.6,2.3,1V28.2z
			 M23.3,30.4v-6.5c0.9,0.6,1.8,1.2,2.7,1.9v4.6H23.3z"/>
	</g>
	<path class="st6" d="M64.9,28.1c0,1.2-0.2,2.5-0.7,3.7c-0.4,1.1-1.1,2.1-1.9,2.9c-0.9,0.8-1.9,1.5-3,1.9c-1.2,0.5-2.5,0.7-3.9,0.7
		h-7.1V19h7.1c1.3,0,2.6,0.2,3.9,0.7c1.1,0.4,2.1,1.1,3,1.9c0.8,0.8,1.5,1.8,1.9,2.9C64.7,25.6,64.9,26.9,64.9,28.1z M60.6,28.1
		c0-0.8-0.1-1.6-0.4-2.4c-0.2-0.7-0.6-1.3-1-1.8c-0.4-0.5-1-0.9-1.6-1.2c-0.7-0.3-1.4-0.4-2.2-0.4h-2.8V34h2.8
		c0.7,0,1.5-0.1,2.2-0.4c0.6-0.3,1.2-0.7,1.6-1.2c0.5-0.5,0.8-1.2,1-1.8C60.5,29.8,60.6,29,60.6,28.1L60.6,28.1z"/>
	<path class="st6" d="M70.2,20.7c0,0.3-0.1,0.6-0.2,0.9c-0.1,0.3-0.3,0.5-0.5,0.7s-0.5,0.4-0.8,0.5S68.1,23,67.8,23
		c-0.3,0-0.6-0.1-0.9-0.2c-0.3-0.1-0.5-0.3-0.7-0.5s-0.4-0.4-0.5-0.7c-0.1-0.3-0.2-0.6-0.2-0.9s0.1-0.6,0.2-0.9
		c0.1-0.3,0.3-0.5,0.5-0.7s0.5-0.4,0.7-0.5c0.3-0.1,0.6-0.2,0.9-0.2c0.3,0,0.6,0.1,0.9,0.2c0.6,0.2,1,0.7,1.3,1.2
		C70.1,20.1,70.1,20.4,70.2,20.7z M69.7,24.3v13h-3.9v-13H69.7z"/>
	<path class="st6" d="M71.6,37.2v-13h2.3c0.2,0,0.3,0,0.5,0c0.1,0,0.2,0.1,0.3,0.2s0.2,0.2,0.2,0.3c0,0.1,0.1,0.3,0.1,0.4l0.2,1.2
		c0.4-0.7,1-1.3,1.6-1.7c0.6-0.4,1.2-0.6,1.9-0.6c0.5,0,1,0.1,1.4,0.4l-0.5,2.8c0,0.1-0.1,0.3-0.2,0.4c-0.1,0.1-0.3,0.1-0.4,0.1
		c-0.2,0-0.3,0-0.5,0s-0.5-0.1-0.7-0.1c-1.1,0-2,0.7-2.4,1.6v8L71.6,37.2z"/>
	<path class="st6" d="M86.2,24.1c0.8,0,1.6,0.1,2.4,0.4c0.7,0.3,1.3,0.6,1.8,1.2c0.5,0.5,0.9,1.2,1.2,1.9c0.3,0.8,0.4,1.7,0.4,2.5
		c0,0.2,0,0.5,0,0.7s-0.1,0.3-0.1,0.4c-0.1,0.1-0.2,0.2-0.3,0.2c-0.1,0.1-0.3,0.1-0.4,0.1h-7.5c0,0.9,0.4,1.7,1,2.3
		c0.6,0.5,1.3,0.8,2.1,0.7c0.4,0,0.8,0,1.2-0.2c0.3-0.1,0.6-0.2,0.9-0.4l0.7-0.4c0.2-0.1,0.4-0.2,0.7-0.2s0.5,0.1,0.7,0.3l1.1,1.4
		c-0.4,0.4-0.8,0.8-1.3,1.1c-0.4,0.3-0.9,0.5-1.4,0.7s-1,0.3-1.5,0.3c-0.5,0.1-0.9,0.1-1.4,0.1c-0.9,0-1.7-0.1-2.6-0.4
		c-0.8-0.3-1.5-0.7-2.1-1.3s-1.1-1.4-1.4-2.2c-0.4-1-0.5-2-0.5-3c0-0.8,0.1-1.7,0.4-2.5c0.3-0.7,0.7-1.4,1.3-2s1.2-1.1,2-1.4
		C84.4,24.3,85.3,24.1,86.2,24.1z M86.3,26.8c-0.6,0-1.3,0.2-1.7,0.6c-0.5,0.5-0.8,1.1-0.8,1.8h4.8c0-0.3,0-0.6-0.1-0.9
		s-0.2-0.5-0.4-0.8c-0.2-0.2-0.4-0.4-0.7-0.6C87,26.8,86.6,26.7,86.3,26.8L86.3,26.8z"/>
	<path class="st6" d="M102.4,27.4c-0.1,0.1-0.2,0.2-0.3,0.3c-0.1,0.1-0.3,0.1-0.5,0.1s-0.4,0-0.5-0.1l-0.5-0.3
		c-0.2-0.1-0.4-0.2-0.7-0.3c-0.3-0.1-0.7-0.2-1-0.1c-0.4,0-0.8,0.1-1.2,0.3c-0.3,0.2-0.6,0.4-0.9,0.8c-0.2,0.4-0.4,0.8-0.5,1.2
		c-0.1,0.5-0.2,1.1-0.2,1.6c-0.1,1,0.2,2,0.7,2.9c0.4,0.7,1.2,1,2,1c0.4,0,0.7,0,1.1-0.2c0.2-0.1,0.5-0.2,0.7-0.4l0.5-0.4
		c0.2-0.1,0.4-0.2,0.6-0.2c0.3,0,0.5,0.1,0.7,0.3l1.1,1.4c-0.4,0.4-0.8,0.8-1.2,1.1s-0.9,0.5-1.4,0.7c-0.4,0.2-0.9,0.3-1.4,0.3
		c-0.5,0.1-0.9,0.1-1.4,0.1c-0.8,0-1.6-0.2-2.3-0.5s-1.4-0.7-1.9-1.3c-0.6-0.6-1-1.3-1.3-2.1c-0.3-0.9-0.5-1.9-0.5-2.8
		s0.1-1.8,0.4-2.6c0.5-1.6,1.7-2.9,3.3-3.5c0.9-0.4,1.8-0.5,2.8-0.5c0.9,0,1.8,0.1,2.7,0.5c0.8,0.3,1.5,0.8,2.1,1.4L102.4,27.4z"/>
	<path class="st6" d="M113.2,27.4c-0.1,0.1-0.2,0.2-0.3,0.3c-0.1,0.1-0.3,0.1-0.5,0.1s-0.4,0-0.5-0.1l-0.5-0.3
		c-0.2-0.1-0.4-0.2-0.7-0.3c-0.3-0.1-0.7-0.2-1-0.1c-0.4,0-0.8,0.1-1.2,0.3c-0.3,0.2-0.6,0.4-0.9,0.8c-0.2,0.4-0.4,0.8-0.5,1.2
		c-0.1,0.5-0.2,1.1-0.2,1.6c-0.1,1,0.2,2,0.7,2.9c0.4,0.7,1.2,1,2,1c0.4,0,0.7,0,1.1-0.2c0.2-0.1,0.5-0.2,0.7-0.4l0.5-0.4
		c0.2-0.1,0.4-0.2,0.6-0.2c0.3,0,0.5,0.1,0.7,0.3l1.1,1.4c-0.4,0.4-0.8,0.8-1.3,1.1c-0.4,0.3-0.9,0.5-1.4,0.7
		c-0.4,0.2-0.9,0.3-1.4,0.3c-0.5,0.1-0.9,0.1-1.4,0.1c-0.8,0-1.6-0.2-2.3-0.5s-1.4-0.7-1.9-1.3c-0.6-0.6-1-1.3-1.3-2.1
		c-0.3-0.9-0.5-1.9-0.5-2.8s0.1-1.8,0.4-2.6c0.5-1.6,1.7-2.9,3.3-3.5c0.9-0.4,1.8-0.5,2.8-0.5c0.9,0,1.8,0.1,2.7,0.5
		c0.8,0.3,1.5,0.8,2.1,1.4L113.2,27.4z"/>
	<path class="st6" d="M119.2,20.7c0,0.3-0.1,0.6-0.2,0.9c-0.3,0.5-0.7,1-1.3,1.2c-0.3,0.1-0.6,0.2-0.9,0.2c-0.3,0-0.6-0.1-0.9-0.2
		c-0.3-0.1-0.5-0.3-0.7-0.5s-0.4-0.4-0.5-0.7c-0.1-0.3-0.2-0.6-0.2-0.9s0.1-0.6,0.2-0.9c0.1-0.3,0.3-0.5,0.5-0.7s0.5-0.4,0.7-0.5
		c0.3-0.1,0.6-0.2,0.9-0.2c0.3,0,0.6,0.1,0.9,0.2c0.3,0.1,0.5,0.3,0.8,0.5c0.2,0.2,0.4,0.5,0.5,0.7
		C119.2,20.1,119.2,20.4,119.2,20.7z M118.8,24.3v13h-3.9v-13H118.8z"/>
	<path class="st6" d="M126.5,24.1c0.9,0,1.8,0.1,2.7,0.5c0.8,0.3,1.5,0.7,2.1,1.3c0.6,0.6,1,1.3,1.4,2.1c0.3,0.9,0.5,1.8,0.5,2.8
		s-0.1,1.9-0.5,2.8c-0.3,0.8-0.8,1.5-1.4,2.1c-0.6,0.6-1.3,1-2.1,1.3c-0.9,0.3-1.8,0.5-2.7,0.5s-1.8-0.1-2.7-0.5
		c-0.8-0.3-1.5-0.8-2.1-1.3c-0.6-0.6-1.1-1.3-1.4-2.1c-0.3-0.9-0.5-1.8-0.5-2.8c0-0.9,0.1-1.9,0.5-2.8c0.3-0.8,0.8-1.5,1.4-2.1
		c0.6-0.6,1.3-1,2.1-1.3C124.6,24.2,125.5,24.1,126.5,24.1z M126.5,34.6c0.8,0.1,1.5-0.3,2-0.9c0.5-0.9,0.7-1.9,0.6-2.9
		c0.1-1-0.1-2-0.6-2.9c-0.5-0.6-1.2-1-2-0.9c-0.8-0.1-1.5,0.3-2,0.9c-0.5,0.9-0.7,1.9-0.6,2.9c-0.1,1,0.2,2,0.6,2.9
		C124.9,34.3,125.7,34.6,126.5,34.6z M131.5,18.8l-3.3,3.3c-0.2,0.2-0.3,0.3-0.6,0.4c-0.2,0.1-0.5,0.1-0.7,0.1h-2.3l1.7-3.1
		c0.1-0.2,0.3-0.4,0.5-0.5c0.3-0.2,0.6-0.2,0.9-0.2C127.7,18.8,131.5,18.8,131.5,18.8z"/>
	<path class="st6" d="M133.9,37.2v-13h2.4c0.2,0,0.4,0.1,0.6,0.2c0.2,0.1,0.3,0.3,0.3,0.5l0.2,0.8c0.2-0.2,0.5-0.4,0.8-0.7
		c0.3-0.2,0.6-0.4,0.9-0.5c0.3-0.1,0.7-0.3,1-0.3c0.4-0.1,0.8-0.1,1.1-0.1c0.6,0,1.3,0.1,1.9,0.4c0.5,0.2,1,0.6,1.4,1
		c0.4,0.5,0.7,1,0.9,1.6s0.3,1.3,0.3,2v8.2h-3.9V29c0-0.5-0.1-1.1-0.4-1.5c-0.3-0.4-0.8-0.6-1.3-0.5c-0.4,0-0.8,0.1-1.2,0.3
		c-0.4,0.2-0.8,0.4-1.1,0.7v9.2H133.9z"/>
	<path class="st6" d="M159.3,34.2c0.5,0,1,0,1.5-0.2c0.4-0.1,0.9-0.2,1.3-0.4v-2.8h-1.8c-0.2,0-0.5-0.1-0.6-0.2s-0.2-0.3-0.2-0.5
		v-2.3h6.5v7.7c-0.5,0.3-0.9,0.6-1.5,0.9c-0.5,0.2-1.1,0.4-1.6,0.6c-0.6,0.2-1.2,0.3-1.8,0.3c-0.7,0.1-1.4,0.1-2.1,0.1
		c-1.3,0-2.5-0.2-3.7-0.7c-2.2-0.9-4-2.7-4.9-4.9c-0.5-1.2-0.7-2.4-0.7-3.7c0-1.3,0.2-2.5,0.7-3.7c0.4-1.1,1.1-2.1,1.9-3
		c0.9-0.8,1.9-1.5,3-1.9c1.3-0.5,2.6-0.7,4-0.7c0.7,0,1.4,0.1,2.1,0.2c0.6,0.1,1.2,0.3,1.8,0.5c0.5,0.2,1.1,0.5,1.5,0.8
		s0.9,0.6,1.3,1l-1.2,1.9c-0.1,0.2-0.3,0.3-0.4,0.4c-0.2,0.1-0.3,0.2-0.5,0.2c-0.3,0-0.5-0.1-0.8-0.3c-0.3-0.2-0.6-0.4-1-0.5
		c-0.3-0.1-0.6-0.3-0.9-0.4c-0.3-0.1-0.7-0.2-1-0.2c-0.4,0-0.8-0.1-1.1-0.1c-0.7,0-1.5,0.1-2.1,0.4s-1.2,0.7-1.6,1.2
		c-0.4,0.5-0.8,1.2-1,1.8c-0.2,0.8-0.4,1.6-0.4,2.4c0,0.9,0.1,1.7,0.4,2.6c0.2,0.7,0.6,1.3,1.1,1.9c0.5,0.5,1.1,0.9,1.8,1.2
		C157.9,34,158.6,34.2,159.3,34.2z"/>
	<path class="st6" d="M172.8,24.1c0.8,0,1.6,0.1,2.4,0.4c0.7,0.3,1.3,0.7,1.8,1.2s0.9,1.2,1.2,1.9c0.3,0.8,0.4,1.7,0.4,2.5
		c0,0.2,0,0.5,0,0.7s-0.1,0.3-0.1,0.4c-0.1,0.1-0.2,0.2-0.3,0.2c-0.1,0.1-0.3,0.1-0.4,0.1h-7.5c0,0.9,0.4,1.7,1,2.3
		c0.6,0.5,1.3,0.8,2.1,0.7c0.4,0,0.8,0,1.2-0.2c0.3-0.1,0.6-0.2,0.9-0.4l0.7-0.4c0.2-0.1,0.4-0.2,0.7-0.2s0.5,0.1,0.7,0.3l1.1,1.4
		c-0.4,0.4-0.8,0.8-1.3,1.1c-0.4,0.3-0.9,0.5-1.4,0.7s-1,0.3-1.5,0.3c-0.5,0.1-0.9,0.1-1.4,0.1c-0.9,0-1.7-0.1-2.6-0.4
		c-0.8-0.3-1.5-0.7-2.1-1.3s-1.1-1.4-1.4-2.2c-0.4-1-0.5-2-0.5-3c0-0.8,0.1-1.7,0.4-2.5c0.3-0.7,0.7-1.4,1.3-2s1.2-1.1,2-1.4
		C171,24.3,171.9,24.1,172.8,24.1z M172.9,26.8c-0.6,0-1.3,0.2-1.7,0.6c-0.5,0.5-0.7,1.1-0.8,1.8h4.9c0-0.3,0-0.6-0.1-0.9
		s-0.2-0.5-0.4-0.8c-0.2-0.2-0.4-0.4-0.7-0.6C173.7,26.8,173.3,26.7,172.9,26.8z"/>
	<path class="st6" d="M179.7,37.2v-13h2.4c0.2,0,0.4,0,0.6,0.2c0.2,0.1,0.3,0.3,0.4,0.5l0.2,0.8c0.2-0.2,0.5-0.4,0.8-0.7
		c0.3-0.2,0.5-0.4,0.9-0.5c0.7-0.3,1.4-0.5,2.1-0.5c0.6,0,1.3,0.1,1.9,0.4c0.5,0.2,1,0.6,1.4,1c0.4,0.5,0.7,1,0.9,1.6
		c0.2,0.6,0.3,1.3,0.3,2v8.2h-3.9V29c0-0.5-0.1-1.1-0.4-1.5c-0.3-0.4-0.8-0.6-1.3-0.5c-0.4,0-0.8,0.1-1.2,0.3
		c-0.4,0.2-0.8,0.4-1.1,0.7v9.2H179.7z"/>
	<path class="st6" d="M198.4,24.1c0.8,0,1.6,0.1,2.4,0.4c0.7,0.3,1.3,0.7,1.8,1.2s0.9,1.2,1.2,1.9c0.3,0.8,0.4,1.7,0.4,2.5
		c0,0.2,0,0.5,0,0.7s-0.1,0.3-0.1,0.4c-0.1,0.1-0.2,0.2-0.3,0.2c-0.1,0.1-0.3,0.1-0.4,0.1H196c0,0.9,0.4,1.7,1,2.3
		c0.6,0.5,1.3,0.8,2.1,0.7c0.4,0,0.8,0,1.2-0.2c0.3-0.1,0.6-0.2,0.9-0.4l0.7-0.4c0.2-0.1,0.4-0.2,0.7-0.2c0.3,0,0.5,0.1,0.7,0.3
		l1.1,1.4c-0.4,0.4-0.8,0.8-1.3,1.1c-0.4,0.3-0.9,0.5-1.4,0.7s-1,0.3-1.5,0.3c-0.5,0.1-0.9,0.1-1.4,0.1c-0.9,0-1.7-0.1-2.6-0.4
		c-0.8-0.3-1.5-0.7-2.1-1.3s-1.1-1.4-1.4-2.2c-0.4-1-0.5-2-0.5-3c0-0.8,0.1-1.7,0.4-2.5c0.3-0.7,0.7-1.4,1.3-2
		c0.6-0.6,1.2-1.1,2-1.4C196.6,24.3,197.5,24.1,198.4,24.1z M198.5,26.8c-0.6,0-1.3,0.2-1.7,0.6c-0.5,0.5-0.7,1.1-0.8,1.8h4.8
		c0-0.3,0-0.6-0.1-0.9s-0.2-0.5-0.4-0.8c-0.2-0.2-0.4-0.4-0.7-0.6C199.2,26.8,198.9,26.7,198.5,26.8z"/>
	<path class="st6" d="M205.2,37.2v-13h2.3c0.2,0,0.3,0,0.5,0c0.1,0,0.2,0.1,0.3,0.2c0.1,0.1,0.2,0.2,0.2,0.3
		c0.1,0.1,0.1,0.3,0.1,0.4l0.2,1.2c0.4-0.7,1-1.3,1.6-1.7c0.6-0.4,1.2-0.6,1.9-0.6c0.5,0,1,0.1,1.4,0.4l-0.5,2.8
		c0,0.1-0.1,0.3-0.2,0.4s-0.3,0.1-0.4,0.1c-0.2,0-0.3,0-0.5,0s-0.5-0.1-0.7-0.1c-1.1,0-2,0.7-2.4,1.6v8L205.2,37.2z"/>
	<path class="st6" d="M223,37.2c-0.3,0-0.6,0-0.8-0.2c-0.2-0.1-0.4-0.4-0.5-0.6l-0.3-0.7c-0.3,0.3-0.6,0.5-0.9,0.7s-0.6,0.4-0.9,0.5
		s-0.7,0.3-1,0.3c-0.4,0.1-0.8,0.1-1.2,0.1c-0.5,0-1.1-0.1-1.6-0.2c-0.5-0.1-0.9-0.4-1.2-0.7c-0.3-0.3-0.6-0.7-0.8-1.1
		c-0.2-0.5-0.3-1-0.3-1.5s0.1-1,0.3-1.4c0.3-0.5,0.7-1,1.2-1.3c0.7-0.5,1.5-0.8,2.3-1c1.2-0.3,2.4-0.4,3.7-0.4v-0.6
		c0.1-0.6-0.1-1.2-0.5-1.7c-0.3-0.4-0.8-0.6-1.3-0.5c-0.4,0-0.8,0-1.1,0.2c-0.3,0.1-0.5,0.2-0.8,0.3c-0.2,0.1-0.5,0.2-0.7,0.3
		c-0.2,0.1-0.5,0.2-0.8,0.2c-0.2,0-0.5-0.1-0.7-0.2s-0.3-0.3-0.5-0.5l-0.7-1.2c0.8-0.7,1.7-1.2,2.6-1.5c1-0.3,2-0.5,3.1-0.5
		c0.7,0,1.4,0.1,2.1,0.4c0.6,0.2,1.1,0.6,1.6,1.1c0.4,0.5,0.8,1,1,1.6c0.2,0.7,0.3,1.4,0.3,2v8.1L223,37.2z M218.6,34.9
		c0.5,0,0.9-0.1,1.3-0.3s0.8-0.5,1.1-0.8V32c-0.6,0-1.3,0-1.9,0.2c-0.4,0.1-0.8,0.2-1.2,0.4c-0.2,0.1-0.5,0.3-0.6,0.5
		s-0.2,0.4-0.2,0.6c0,0.4,0.1,0.7,0.4,0.9C217.8,34.8,218.2,34.9,218.6,34.9z"/>
	<path class="st6" d="M230.3,18.5v18.7h-3.9V18.5H230.3z"/>
	<path class="st6" d="M244.8,37.2c-0.2,0-0.4,0-0.6-0.2c-0.2-0.1-0.3-0.3-0.4-0.5l-0.3-1c-0.3,0.3-0.5,0.5-0.8,0.8
		c-0.3,0.2-0.6,0.4-0.9,0.6c-0.3,0.2-0.7,0.3-1.1,0.4c-0.4,0.1-0.8,0.1-1.2,0.1c-0.7,0-1.3-0.1-1.9-0.5c-0.6-0.3-1.1-0.8-1.5-1.3
		c-0.5-0.6-0.8-1.3-1-2.1c-0.3-0.9-0.4-1.9-0.4-2.8s0.1-1.8,0.4-2.7c0.2-0.8,0.6-1.5,1.1-2.2c0.5-0.6,1.1-1.1,1.8-1.4
		c0.7-0.3,1.5-0.5,2.3-0.5c0.6,0,1.2,0.1,1.7,0.3c0.5,0.2,0.9,0.4,1.3,0.8v-6.5h3.9v18.7C247.2,37.2,244.8,37.2,244.8,37.2z
		 M240.9,34.5c0.3,0,0.5,0,0.8-0.1c0.2-0.1,0.4-0.1,0.6-0.2c0.2-0.1,0.4-0.2,0.5-0.4c0.2-0.2,0.4-0.3,0.5-0.5v-5.5
		c-0.3-0.3-0.6-0.5-1-0.7c-0.3-0.1-0.7-0.2-1.1-0.2c-0.3,0-0.7,0.1-1,0.2c-0.3,0.2-0.6,0.4-0.8,0.7c-0.2,0.4-0.4,0.8-0.5,1.2
		c-0.1,0.6-0.2,1.2-0.2,1.8c0,0.6,0,1.2,0.1,1.7c0.1,0.4,0.2,0.8,0.4,1.1c0.1,0.3,0.4,0.5,0.6,0.6C240.3,34.4,240.6,34.5,240.9,34.5
		z"/>
	<path class="st6" d="M254.5,24.1c0.8,0,1.6,0.1,2.4,0.4c0.7,0.3,1.3,0.7,1.8,1.2s0.9,1.2,1.2,1.9c0.3,0.8,0.4,1.7,0.4,2.5
		c0,0.2,0,0.5,0,0.7s-0.1,0.3-0.1,0.4c-0.1,0.1-0.1,0.2-0.3,0.2c-0.1,0.1-0.3,0.1-0.4,0.1H252c0,0.9,0.4,1.7,1,2.3
		c0.6,0.5,1.3,0.8,2.1,0.7c0.4,0,0.8,0,1.2-0.2c0.3-0.1,0.6-0.2,0.9-0.4l0.7-0.4c0.2-0.1,0.4-0.2,0.7-0.2c0.3,0,0.5,0.1,0.7,0.3
		l1.1,1.4c-0.4,0.4-0.8,0.8-1.3,1.1c-0.4,0.3-0.9,0.5-1.4,0.7s-1,0.3-1.5,0.3c-0.5,0.1-0.9,0.1-1.4,0.1c-0.9,0-1.7-0.1-2.6-0.4
		c-0.8-0.3-1.5-0.7-2.1-1.3s-1.1-1.4-1.4-2.2c-0.4-1-0.5-2-0.5-3c0-0.8,0.1-1.7,0.5-2.5c0.3-0.7,0.7-1.4,1.3-2
		c0.6-0.6,1.3-1.1,2-1.4C252.7,24.3,253.6,24.1,254.5,24.1z M254.6,26.8c-0.6,0-1.3,0.2-1.7,0.6c-0.5,0.5-0.7,1.1-0.8,1.8h4.8
		c0-0.3,0-0.6-0.1-0.9s-0.2-0.5-0.4-0.8c-0.2-0.2-0.4-0.4-0.7-0.6C255.3,26.8,255,26.7,254.6,26.8L254.6,26.8z"/>
	<path class="st6" d="M278.1,19v3.3H273v14.9h-4.2V22.4h-5.1V19H278.1z"/>
	<path class="st6" d="M276.6,37.2v-13h2.3c0.2,0,0.3,0,0.5,0c0.1,0,0.2,0.1,0.3,0.2c0.1,0.1,0.2,0.2,0.2,0.3c0,0.1,0.1,0.3,0.1,0.4
		l0.2,1.2c0.4-0.7,1-1.3,1.6-1.7c0.6-0.4,1.2-0.6,1.9-0.6c0.5,0,1,0.1,1.4,0.4l-0.5,2.8c0,0.1-0.1,0.3-0.2,0.4s-0.3,0.1-0.4,0.1
		c-0.2,0-0.3,0-0.5,0s-0.5-0.1-0.7-0.1c-1.1,0-2,0.7-2.4,1.6v8L276.6,37.2z"/>
	<path class="st6" d="M294.4,37.2c-0.3,0-0.6,0-0.8-0.2c-0.2-0.1-0.4-0.4-0.5-0.6l-0.3-0.7c-0.3,0.3-0.6,0.5-0.9,0.7
		s-0.6,0.4-0.9,0.5c-0.3,0.2-0.7,0.3-1,0.3c-0.4,0.1-0.8,0.1-1.2,0.1c-0.5,0-1.1-0.1-1.6-0.2c-0.5-0.1-0.9-0.4-1.2-0.7
		c-0.3-0.3-0.6-0.7-0.8-1.1c-0.2-0.5-0.3-1-0.3-1.5s0.1-1,0.4-1.4c0.3-0.5,0.7-1,1.2-1.3c0.7-0.5,1.5-0.8,2.3-1
		c1.2-0.3,2.4-0.4,3.7-0.4v-0.6c0.1-0.6-0.1-1.2-0.5-1.7c-0.3-0.4-0.8-0.6-1.3-0.5c-0.4,0-0.8,0-1.1,0.2c-0.3,0.1-0.5,0.2-0.8,0.3
		c-0.2,0.1-0.5,0.2-0.7,0.3c-0.2,0.1-0.5,0.2-0.8,0.2c-0.2,0-0.5-0.1-0.7-0.2s-0.3-0.3-0.5-0.5l-0.7-1.2c0.8-0.7,1.7-1.2,2.6-1.5
		c1-0.3,2-0.5,3.1-0.5c0.7,0,1.4,0.1,2.1,0.4c0.6,0.2,1.1,0.6,1.6,1.1c0.4,0.5,0.8,1,1,1.6c0.2,0.7,0.4,1.4,0.4,2v8.1L294.4,37.2z
		 M290,34.9c0.5,0,0.9-0.1,1.3-0.3s0.8-0.5,1.1-0.8V32c-0.6,0-1.3,0-1.9,0.2c-0.4,0.1-0.8,0.2-1.2,0.4c-0.2,0.1-0.5,0.3-0.6,0.5
		s-0.2,0.4-0.2,0.6c0,0.4,0.1,0.7,0.4,0.9C289.2,34.8,289.6,34.9,290,34.9z"/>
	<path class="st6" d="M297.7,37.2v-13h2.4c0.2,0,0.4,0.1,0.6,0.2s0.3,0.3,0.3,0.5l0.2,0.8c0.3-0.2,0.5-0.5,0.8-0.7s0.6-0.4,0.9-0.5
		s0.7-0.3,1-0.3c0.4-0.1,0.8-0.1,1.1-0.1c0.6,0,1.3,0.1,1.9,0.4c0.5,0.2,1,0.6,1.4,1c0.4,0.5,0.7,1,0.9,1.6c0.2,0.6,0.3,1.3,0.3,2
		v8.2h-3.9V29c0-0.5-0.1-1.1-0.4-1.5s-0.8-0.6-1.3-0.5c-0.4,0-0.8,0.1-1.2,0.3c-0.4,0.2-0.8,0.4-1.1,0.7v9.2H297.7z"/>
	<path class="st6" d="M318.9,27.1c-0.1,0.1-0.2,0.3-0.3,0.3c-0.1,0.1-0.3,0.1-0.4,0.1c-0.2,0-0.4,0-0.5-0.1l-0.6-0.3
		c-0.2-0.1-0.5-0.2-0.7-0.3c-0.3-0.1-0.6-0.1-0.9-0.1c-0.4,0-0.8,0.1-1.1,0.3c-0.3,0.2-0.4,0.5-0.4,0.8c0,0.2,0.1,0.4,0.3,0.6
		c0.2,0.2,0.4,0.3,0.7,0.4c0.3,0.1,0.7,0.2,1,0.3l1.1,0.4c0.4,0.1,0.7,0.3,1.1,0.5s0.7,0.4,1,0.7c0.3,0.3,0.5,0.6,0.7,1
		c0.2,0.4,0.3,0.9,0.3,1.3c0,0.6-0.1,1.2-0.4,1.8c-0.2,0.5-0.6,1-1,1.4c-0.5,0.4-1.1,0.7-1.7,0.9c-1.2,0.3-2.4,0.4-3.7,0.2
		c-0.4-0.1-0.9-0.2-1.3-0.3s-0.8-0.3-1.1-0.5c-0.3-0.2-0.6-0.4-0.9-0.6l0.9-1.4c0.1-0.2,0.2-0.3,0.4-0.4c0.2-0.1,0.4-0.2,0.6-0.2
		s0.4,0,0.6,0.2l0.6,0.3c0.2,0.1,0.5,0.2,0.7,0.3c0.3,0.1,0.7,0.2,1.1,0.2c0.3,0,0.5,0,0.8-0.1c0.2,0,0.4-0.1,0.5-0.3
		c0.1-0.1,0.2-0.2,0.3-0.4c0.1-0.1,0.1-0.3,0.1-0.4c0-0.2-0.1-0.5-0.3-0.6c-0.2-0.2-0.4-0.3-0.7-0.4c-0.3-0.1-0.7-0.2-1-0.3
		c-0.4-0.1-0.7-0.2-1.1-0.4c-0.4-0.1-0.8-0.3-1.1-0.5c-0.4-0.2-0.7-0.4-1-0.7c-0.3-0.3-0.5-0.7-0.7-1.1c-0.2-0.5-0.3-1-0.3-1.5
		s0.1-1.1,0.3-1.6c0.2-0.5,0.6-1,1-1.3c0.5-0.4,1-0.7,1.6-0.9c0.7-0.2,1.5-0.3,2.3-0.3c0.5,0,0.9,0,1.4,0.1c0.4,0.1,0.8,0.2,1.2,0.3
		c0.4,0.1,0.7,0.3,1,0.5s0.6,0.4,0.8,0.7L318.9,27.1z"/>
	<path class="st6" d="M320.7,41.4V24.3h2.4c0.2,0,0.4,0.1,0.6,0.2s0.3,0.3,0.3,0.5l0.3,1c0.3-0.3,0.5-0.5,0.8-0.8
		c0.6-0.5,1.3-0.8,2-1c0.4-0.1,0.8-0.1,1.3-0.1c0.7,0,1.3,0.2,1.9,0.5s1.1,0.8,1.5,1.3c0.5,0.6,0.8,1.3,1,2.1
		c0.3,0.9,0.4,1.9,0.4,2.8s-0.1,1.8-0.4,2.7c-0.2,0.8-0.6,1.5-1.1,2.2c-0.5,0.6-1.1,1.1-1.8,1.4c-0.7,0.3-1.5,0.5-2.3,0.5
		c-0.6,0-1.2-0.1-1.7-0.3s-0.9-0.5-1.3-0.8v5L320.7,41.4z M327,27c-0.3,0-0.5,0-0.8,0.1c-0.2,0-0.4,0.1-0.6,0.2s-0.4,0.2-0.5,0.4
		c-0.2,0.2-0.3,0.3-0.5,0.5v5.5c0.3,0.3,0.6,0.5,1,0.7c0.3,0.1,0.7,0.2,1.1,0.2c0.3,0,0.7-0.1,1-0.2c0.3-0.2,0.6-0.4,0.8-0.7
		c0.2-0.4,0.4-0.8,0.5-1.2c0.1-0.6,0.2-1.2,0.2-1.8c0-0.6,0-1.2-0.1-1.7c-0.1-0.4-0.2-0.8-0.4-1.1c-0.2-0.3-0.4-0.5-0.6-0.6
		C327.6,27,327.3,27,327,27z"/>
	<path class="st6" d="M339.7,24.1c0.9,0,1.8,0.1,2.7,0.5c1.6,0.6,2.8,1.8,3.4,3.4c0.3,0.9,0.5,1.8,0.5,2.8s-0.1,1.9-0.5,2.8
		c-0.6,1.6-1.8,2.9-3.4,3.5c-1.7,0.6-3.7,0.6-5.4,0c-0.8-0.3-1.5-0.8-2.1-1.3c-0.6-0.6-1.1-1.3-1.4-2.1c-0.3-0.9-0.5-1.8-0.5-2.8
		c0-0.9,0.1-1.9,0.5-2.8c0.3-0.8,0.8-1.5,1.4-2.1s1.3-1,2.1-1.3C337.8,24.2,338.7,24.1,339.7,24.1z M339.7,34.6
		c0.8,0.1,1.6-0.3,2-0.9c0.5-0.9,0.7-1.9,0.6-2.9c0.1-1-0.2-2-0.7-2.9c-0.5-0.6-1.2-1-2-0.9c-0.8-0.1-1.5,0.3-2,0.9
		c-0.5,0.9-0.7,1.9-0.6,2.9c-0.1,1,0.2,2,0.6,2.9C338.1,34.3,338.9,34.6,339.7,34.6z"/>
	<path class="st6" d="M347.1,37.2v-13h2.3c0.2,0,0.3,0,0.5,0c0.1,0,0.2,0.1,0.3,0.2c0.1,0.1,0.2,0.2,0.2,0.3c0,0.1,0.1,0.3,0.1,0.4
		l0.2,1.2c0.4-0.7,1-1.3,1.6-1.7c0.6-0.4,1.2-0.6,1.9-0.6c0.5,0,1,0.1,1.4,0.4l-0.5,2.8c0,0.1-0.1,0.3-0.2,0.4s-0.3,0.1-0.4,0.1
		c-0.2,0-0.3,0-0.5,0s-0.5-0.1-0.7-0.1c-1.1,0-2,0.7-2.4,1.6v8L347.1,37.2z"/>
	<path class="st6" d="M360.8,37.4c-0.6,0-1.1-0.1-1.6-0.3c-0.4-0.2-0.9-0.4-1.2-0.8c-0.3-0.3-0.6-0.7-0.7-1.2
		c-0.2-0.5-0.3-1-0.3-1.6V27h-1.1c-0.2,0-0.4-0.1-0.5-0.2c-0.1-0.2-0.2-0.4-0.2-0.6v-1.5l2.1-0.4l0.8-3.2c0.1-0.4,0.5-0.7,0.9-0.6h2
		v3.8h3.1V27H361v6.4c0,0.3,0.1,0.5,0.2,0.8c0.2,0.2,0.4,0.3,0.6,0.3c0.1,0,0.2,0,0.4,0c0.1,0,0.2-0.1,0.3-0.1l0.2-0.1
		c0.1,0,0.1,0,0.2,0s0.2,0,0.3,0.1c0.1,0.1,0.2,0.2,0.2,0.3l1.2,1.8c-0.5,0.4-1.1,0.7-1.7,0.8C362.1,37.4,361.4,37.5,360.8,37.4z"/>
	<path class="st6" d="M370.5,24.1c0.8,0,1.6,0.1,2.4,0.4c0.7,0.3,1.3,0.6,1.8,1.2c0.5,0.5,0.9,1.2,1.2,1.9c0.3,0.8,0.4,1.7,0.4,2.5
		c0,0.2,0,0.5,0,0.7s-0.1,0.3-0.1,0.4c-0.1,0.1-0.2,0.2-0.3,0.2c-0.1,0.1-0.3,0.1-0.4,0.1H368c0,0.9,0.4,1.7,1,2.3
		c0.6,0.5,1.3,0.8,2.1,0.7c0.4,0,0.8,0,1.2-0.2c0.3-0.1,0.6-0.2,0.9-0.4l0.7-0.4c0.2-0.1,0.4-0.2,0.7-0.2c0.3,0,0.5,0.1,0.7,0.3
		l1,1.4c-0.4,0.4-0.8,0.8-1.3,1.1c-0.4,0.3-0.9,0.5-1.4,0.7s-1,0.3-1.5,0.3c-0.5,0.1-0.9,0.1-1.4,0.1c-0.9,0-1.7-0.1-2.5-0.4
		c-0.8-0.3-1.5-0.7-2.1-1.3s-1.1-1.4-1.4-2.2c-0.4-1-0.5-2-0.5-3c0-0.8,0.1-1.7,0.4-2.5c0.3-0.7,0.7-1.4,1.3-2
		c0.6-0.6,1.2-1.1,2-1.4C368.7,24.3,369.6,24.1,370.5,24.1z M370.6,26.8c-0.6,0-1.3,0.2-1.7,0.6c-0.5,0.5-0.7,1.1-0.8,1.8h4.8
		c0-0.3,0-0.6-0.1-0.9s-0.2-0.5-0.4-0.8c-0.2-0.2-0.4-0.4-0.7-0.6C371.3,26.8,371,26.7,370.6,26.8z"/>
	<path class="st7" d="M55.9,54.9c0.1,0.3,0.2,0.6,0.4,0.8c0.1-0.3,0.2-0.6,0.4-0.8s0.3-0.6,0.4-0.8l3.7-7.4c0.1-0.1,0.1-0.2,0.2-0.3
		c0.1-0.1,0.1-0.1,0.2-0.2c0.1,0,0.2,0,0.3,0h3v14.6h-3v-8.4c0-0.4,0-0.8,0.1-1.3l-3.9,7.5c-0.1,0.2-0.3,0.4-0.5,0.5
		s-0.5,0.2-0.7,0.2H56c-0.2,0-0.5-0.1-0.7-0.2c-0.2-0.1-0.4-0.3-0.5-0.5L51,51c0,0.2,0.1,0.5,0.1,0.7s0,0.4,0,0.6v8.4h-3V46.2h3
		c0.1,0,0.2,0,0.3,0c0.1,0,0.2,0.1,0.2,0.2c0.1,0.1,0.1,0.2,0.2,0.3l3.8,7.4C55.7,54.3,55.8,54.6,55.9,54.9z"/>
	<path class="st7" d="M69.6,47.5c0,0.2,0,0.5-0.1,0.7c-0.2,0.4-0.6,0.8-1,1c-0.2,0.1-0.5,0.1-0.7,0.1s-0.5,0-0.7-0.1
		s-0.4-0.2-0.6-0.4c-0.2-0.2-0.3-0.4-0.4-0.6C66,48,65.9,47.7,66,47.5c0-0.2,0-0.5,0.1-0.7s0.2-0.4,0.4-0.6c0.2-0.2,0.4-0.3,0.6-0.4
		c0.2-0.1,0.5-0.1,0.7-0.1c0.3,0,0.5,0,0.7,0.1s0.4,0.2,0.6,0.4c0.2,0.2,0.3,0.4,0.4,0.6C69.5,47.1,69.6,47.3,69.6,47.5z M69.2,50.4
		v10.4h-3.1V50.4H69.2z"/>
	<path class="st7" d="M70.9,60.8V50.4h1.9c0.2,0,0.3,0,0.5,0.1c0.1,0.1,0.2,0.2,0.3,0.4l0.2,0.6c0.2-0.2,0.4-0.4,0.6-0.5
		c0.2-0.2,0.4-0.3,0.7-0.4c0.2-0.1,0.5-0.2,0.8-0.3s0.6-0.1,0.9-0.1c0.5,0,1,0.1,1.5,0.3c0.4,0.2,0.8,0.5,1.1,0.8
		c0.3,0.4,0.5,0.8,0.7,1.3s0.2,1,0.2,1.6v6.6h-3.1v-6.6c0-0.4-0.1-0.8-0.4-1.2c-0.2-0.3-0.6-0.4-1-0.4c-0.3,0-0.7,0.1-1,0.2
		c-0.3,0.2-0.6,0.4-0.9,0.6v7.4L70.9,60.8z"/>
	<path class="st7" d="M85.2,47.5c0,0.2,0,0.5-0.1,0.7c-0.2,0.4-0.6,0.8-1,1c-0.2,0.1-0.5,0.1-0.7,0.1s-0.5,0-0.7-0.1
		s-0.4-0.2-0.6-0.4c-0.2-0.2-0.3-0.4-0.4-0.6c-0.1-0.2-0.1-0.5-0.1-0.7s0-0.5,0.1-0.7s0.2-0.4,0.4-0.6c0.2-0.2,0.4-0.3,0.6-0.4
		c0.2-0.1,0.5-0.1,0.7-0.1c0.3,0,0.5,0,0.7,0.1s0.4,0.2,0.6,0.4c0.2,0.2,0.3,0.4,0.4,0.6C85.1,47.1,85.1,47.3,85.2,47.5z M84.8,50.4
		v10.4h-3.1V50.4H84.8z"/>
	<path class="st7" d="M92.8,52.7c-0.1,0.1-0.2,0.2-0.3,0.3s-0.2,0.1-0.3,0.1c-0.2,0-0.3,0-0.4-0.1l-0.5-0.2
		c-0.2-0.1-0.4-0.1-0.6-0.2c-0.2-0.1-0.5-0.1-0.7-0.1c-0.3,0-0.6,0.1-0.9,0.2c-0.2,0.1-0.3,0.4-0.3,0.6c0,0.2,0.1,0.4,0.2,0.5
		c0.2,0.1,0.3,0.3,0.6,0.3c0.3,0.1,0.5,0.2,0.8,0.3l0.9,0.3c0.3,0.1,0.6,0.2,0.9,0.4c0.3,0.1,0.5,0.3,0.8,0.5
		c0.2,0.2,0.4,0.5,0.5,0.8s0.2,0.7,0.2,1.1c0,0.5-0.1,1-0.3,1.4s-0.5,0.8-0.8,1.1c-0.4,0.3-0.9,0.6-1.4,0.7C90.6,60.9,90,61,89.3,61
		c-0.4,0-0.7,0-1.1-0.1c-0.3-0.1-0.7-0.2-1-0.3s-0.6-0.2-0.9-0.4c-0.3-0.1-0.5-0.3-0.7-0.5l0.7-1.1c0.1-0.1,0.2-0.2,0.3-0.3
		s0.3-0.1,0.5-0.1s0.3,0,0.5,0.1l0.5,0.3c0.2,0.1,0.4,0.2,0.6,0.3C89,59,89.3,59,89.6,59c0.2,0,0.4,0,0.6-0.1c0.1,0,0.3-0.1,0.4-0.2
		c0.1-0.1,0.2-0.2,0.2-0.3s0.1-0.2,0.1-0.3c0-0.2-0.1-0.4-0.2-0.5c-0.2-0.1-0.3-0.3-0.6-0.3c-0.3-0.1-0.5-0.2-0.8-0.3
		s-0.6-0.2-0.9-0.3c-0.3-0.1-0.6-0.2-0.9-0.4c-0.3-0.1-0.5-0.3-0.8-0.6c-0.2-0.2-0.4-0.5-0.6-0.8c-0.2-0.4-0.2-0.8-0.2-1.2
		s0.1-0.9,0.3-1.3c0.2-0.4,0.4-0.7,0.8-1c0.4-0.3,0.8-0.6,1.3-0.7c0.6-0.2,1.2-0.3,1.8-0.3c0.4,0,0.7,0,1.1,0.1
		c0.3,0.1,0.7,0.2,1,0.3s0.6,0.3,0.8,0.4c0.2,0.2,0.5,0.3,0.7,0.5L92.8,52.7z"/>
	<path class="st7" d="M98,60.9c-0.4,0-0.9-0.1-1.3-0.2c-0.7-0.3-1.3-0.8-1.5-1.6c-0.1-0.4-0.2-0.8-0.2-1.3v-5.4h-0.9
		c-0.2,0-0.3,0-0.4-0.2c-0.1-0.1-0.2-0.3-0.2-0.5v-1.2l1.6-0.3l0.6-2.5c0.1-0.3,0.4-0.5,0.7-0.5H98v3h2.5v2.1H98v5.1
		c0,0.2,0.1,0.4,0.2,0.6c0.1,0.2,0.3,0.2,0.5,0.2c0.1,0,0.2,0,0.3,0s0.1,0,0.2-0.1l0.2-0.1c0.1,0,0.1,0,0.2,0c0.1,0,0.2,0,0.2,0.1
		c0.1,0.1,0.1,0.1,0.2,0.2l0.9,1.5c-0.4,0.3-0.9,0.5-1.4,0.7C99.1,60.9,98.5,60.9,98,60.9z"/>
	<path class="st7" d="M106,50.2c0.6,0,1.3,0.1,1.9,0.3c1.1,0.4,2,1.3,2.4,2.4c0.2,0.6,0.4,1.3,0.4,2c0,0.2,0,0.4,0,0.6
		c0,0.1,0,0.2-0.1,0.3c0,0.1-0.1,0.1-0.2,0.2c-0.1,0-0.2,0.1-0.3,0.1h-6c0,0.7,0.3,1.4,0.8,1.9c0.5,0.4,1,0.6,1.6,0.6
		c0.3,0,0.6,0,0.9-0.1c0.2-0.1,0.5-0.2,0.7-0.3l0.6-0.3c0.2-0.1,0.4-0.1,0.5-0.1c0.2,0,0.4,0.1,0.6,0.3l0.9,1.1
		c-0.3,0.3-0.6,0.7-1,0.9s-0.7,0.4-1.1,0.5c-0.4,0.1-0.8,0.2-1.2,0.3c-0.4,0-0.7,0.1-1.1,0.1c-0.7,0-1.4-0.1-2-0.3s-1.2-0.6-1.7-1.1
		s-0.9-1.1-1.2-1.8c-0.3-0.8-0.4-1.6-0.4-2.4c0-0.7,0.1-1.4,0.4-2c0.2-0.6,0.6-1.2,1-1.6c0.5-0.5,1-0.8,1.6-1.1
		C104.5,50.3,105.2,50.2,106,50.2z M106,52.4c-0.5,0-1,0.2-1.4,0.5c-0.4,0.4-0.6,0.9-0.7,1.5h3.9c0-0.2,0-0.5-0.1-0.7
		c-0.1-0.5-0.4-0.9-0.9-1.1C106.6,52.4,106.3,52.4,106,52.4z"/>
	<path class="st7" d="M111.5,60.8V50.4h1.8c0.1,0,0.3,0,0.4,0c0.1,0,0.2,0.1,0.3,0.1c0.1,0.1,0.1,0.1,0.2,0.2c0,0.1,0.1,0.2,0.1,0.3
		l0.2,1c0.3-0.5,0.8-1,1.3-1.4c0.4-0.3,1-0.5,1.6-0.5c0.4,0,0.8,0.1,1.1,0.3l-0.4,2.3c0,0.1-0.1,0.2-0.2,0.3
		c-0.1,0.1-0.2,0.1-0.3,0.1s-0.3,0-0.4,0c-0.2,0-0.4-0.1-0.6,0c-0.8,0-1.6,0.5-1.9,1.3v6.4L111.5,60.8z"/>
	<path class="st7" d="M122.5,47.5c0,0.2,0,0.5-0.1,0.7s-0.2,0.4-0.4,0.6c-0.2,0.2-0.4,0.3-0.6,0.4c-0.2,0.1-0.5,0.1-0.7,0.1
		s-0.5,0-0.7-0.1s-0.4-0.2-0.6-0.4c-0.2-0.2-0.3-0.4-0.4-0.6c-0.1-0.2-0.1-0.5-0.1-0.7s0-0.5,0.1-0.7s0.2-0.4,0.4-0.6
		c0.2-0.2,0.4-0.3,0.6-0.4c0.2-0.1,0.5-0.1,0.7-0.1s0.5,0,0.7,0.1s0.4,0.2,0.6,0.4c0.2,0.2,0.3,0.4,0.4,0.6
		C122.4,47.1,122.5,47.3,122.5,47.5z M122.1,50.4v10.4H119V50.4H122.1z"/>
	<path class="st7" d="M128.4,50.2c0.7,0,1.5,0.1,2.1,0.4c0.6,0.2,1.2,0.6,1.7,1.1s0.8,1.1,1,1.7c0.3,0.7,0.4,1.5,0.4,2.2
		c0,0.8-0.1,1.5-0.4,2.2c-0.5,1.3-1.5,2.3-2.7,2.8c-0.7,0.3-1.4,0.4-2.1,0.4c-0.7,0-1.5-0.1-2.2-0.4c-1.3-0.5-2.3-1.5-2.8-2.8
		c-0.3-0.7-0.4-1.5-0.4-2.2c0-0.8,0.1-1.5,0.4-2.2c0.2-0.6,0.6-1.2,1.1-1.7s1.1-0.8,1.7-1.1C126.9,50.3,127.7,50.2,128.4,50.2z
		 M128.4,58.6c0.6,0,1.2-0.2,1.6-0.8c0.7-1.5,0.7-3.1,0-4.6c-0.4-0.5-1-0.8-1.6-0.8s-1.2,0.2-1.6,0.8c-0.7,1.5-0.7,3.1,0,4.6
		C127.1,58.4,127.8,58.7,128.4,58.6z"/>
	<path class="st7" d="M144.8,60.8c-0.2,0-0.3,0-0.5-0.1c-0.1-0.1-0.2-0.2-0.3-0.4l-0.2-0.8c-0.2,0.2-0.4,0.4-0.6,0.6
		c-0.2,0.2-0.5,0.3-0.7,0.5c-0.3,0.1-0.6,0.2-0.9,0.3c-0.3,0.1-0.7,0.1-1,0.1c-0.5,0-1-0.1-1.5-0.4c-0.5-0.2-0.9-0.6-1.2-1
		c-0.4-0.5-0.6-1.1-0.8-1.7c-0.2-0.7-0.3-1.5-0.3-2.3c0-0.7,0.1-1.5,0.3-2.2c0.2-0.6,0.5-1.2,0.9-1.7s0.9-0.9,1.4-1.1
		c0.6-0.3,1.2-0.4,1.8-0.4c0.5,0,0.9,0.1,1.4,0.2c0.4,0.2,0.7,0.4,1,0.6v-5.3h3.1v15L144.8,60.8z M141.6,58.5c0.2,0,0.4,0,0.6-0.1
		c0.2,0,0.3-0.1,0.5-0.2c0.2-0.1,0.3-0.2,0.4-0.3c0.1-0.1,0.3-0.3,0.4-0.4v-4.4c-0.2-0.2-0.5-0.4-0.8-0.5s-0.6-0.2-0.9-0.2
		c-0.3,0-0.5,0.1-0.8,0.2c-0.3,0.1-0.5,0.3-0.6,0.5c-0.2,0.3-0.3,0.6-0.4,1c-0.1,0.5-0.2,1-0.1,1.4c0,0.5,0,0.9,0.1,1.4
		c0.1,0.3,0.2,0.6,0.3,0.9c0.1,0.2,0.3,0.4,0.5,0.5C141.2,58.5,141.4,58.5,141.6,58.5L141.6,58.5z"/>
	<path class="st7" d="M152.7,50.2c0.6,0,1.3,0.1,1.9,0.3c1.1,0.4,2,1.3,2.4,2.4c0.2,0.6,0.4,1.3,0.4,2c0,0.2,0,0.4,0,0.6
		c0,0.1-0.1,0.2-0.1,0.3c-0.1,0.1-0.1,0.1-0.2,0.2c-0.1,0-0.2,0.1-0.3,0.1h-6c0,0.7,0.3,1.4,0.8,1.9c0.5,0.4,1,0.6,1.6,0.6
		c0.3,0,0.6,0,0.9-0.1c0.2-0.1,0.5-0.2,0.7-0.3l0.6-0.3c0.2-0.1,0.4-0.1,0.5-0.1c0.2,0,0.4,0.1,0.6,0.3l0.9,1.1
		c-0.3,0.3-0.6,0.7-1,0.9s-0.7,0.4-1.1,0.5c-0.4,0.1-0.8,0.2-1.2,0.3c-0.4,0-0.7,0.1-1.1,0.1c-0.7,0-1.4-0.1-2-0.3s-1.2-0.6-1.7-1.1
		s-0.9-1.1-1.1-1.7c-0.3-0.8-0.4-1.6-0.4-2.4c0-0.7,0.1-1.4,0.4-2c0.2-0.6,0.6-1.2,1-1.6c0.5-0.5,1-0.8,1.6-1.1
		C151.3,50.3,152,50.2,152.7,50.2z M152.8,52.4c-0.5,0-1,0.2-1.4,0.5c-0.4,0.4-0.6,0.9-0.7,1.5h3.9c0-0.2,0-0.5-0.1-0.7
		c-0.1-0.5-0.4-0.9-0.9-1.1C153.3,52.4,153,52.4,152.8,52.4z"/>
	<path class="st7" d="M175.7,53.5c0,1-0.2,2-0.5,2.9c-0.7,1.8-2.1,3.2-3.9,3.9c-2,0.8-4.2,0.8-6.2,0c-0.9-0.4-1.7-0.9-2.4-1.6
		c-0.7-0.7-1.2-1.5-1.5-2.4c-0.7-1.9-0.7-4,0-5.9c0.7-1.8,2.1-3.2,3.9-3.9c1-0.4,2-0.6,3.1-0.6s2.1,0.2,3.1,0.6
		c0.9,0.4,1.7,0.9,2.4,1.6c0.7,0.7,1.2,1.5,1.5,2.4C175.5,51.5,175.7,52.5,175.7,53.5z M172.2,53.5c0-0.7-0.1-1.3-0.3-1.9
		c-0.2-0.5-0.4-1-0.8-1.5c-0.4-0.4-0.8-0.7-1.3-0.9c-1.1-0.4-2.4-0.4-3.5,0c-0.5,0.2-0.9,0.5-1.3,0.9c-0.4,0.4-0.6,0.9-0.8,1.5
		s-0.3,1.3-0.3,1.9c0,0.7,0.1,1.4,0.3,2c0.2,0.5,0.4,1,0.8,1.5c0.4,0.4,0.8,0.7,1.3,0.9c1.1,0.4,2.4,0.4,3.5,0
		c0.5-0.2,0.9-0.5,1.3-0.9c0.4-0.4,0.6-0.9,0.8-1.5C172.1,54.8,172.2,54.1,172.2,53.5L172.2,53.5z"/>
	<path class="st7" d="M176.4,60.8v-15h3.1v5.7c0.4-0.4,0.8-0.7,1.3-0.9s1.1-0.4,1.7-0.3c0.5,0,1,0.1,1.5,0.3s0.9,0.6,1.2,1
		c0.4,0.5,0.6,1.1,0.8,1.7c0.2,0.7,0.3,1.5,0.3,2.2s-0.1,1.5-0.3,2.2c-0.2,0.6-0.5,1.2-0.9,1.7s-0.9,0.9-1.4,1.1
		c-0.6,0.3-1.2,0.4-1.8,0.4c-0.3,0-0.6,0-0.8-0.1s-0.5-0.1-0.7-0.3c-0.2-0.1-0.4-0.2-0.6-0.4c-0.2-0.2-0.3-0.3-0.5-0.5l-0.1,0.5
		c0,0.2-0.1,0.3-0.3,0.4c-0.1,0.1-0.3,0.1-0.5,0.1L176.4,60.8z M181.5,52.5c-0.2,0-0.4,0-0.6,0.1c-0.2,0-0.3,0.1-0.5,0.2
		c-0.2,0.1-0.3,0.2-0.4,0.3c-0.1,0.1-0.3,0.3-0.4,0.4v4.4c0.2,0.2,0.5,0.4,0.8,0.6c0.3,0.1,0.6,0.2,0.9,0.2c0.3,0,0.5-0.1,0.8-0.2
		c0.3-0.1,0.5-0.3,0.6-0.5c0.2-0.3,0.3-0.6,0.4-1c0.1-0.5,0.2-1,0.1-1.5c0-0.5,0-0.9-0.1-1.4c-0.1-0.3-0.2-0.6-0.3-0.9
		c-0.1-0.2-0.3-0.4-0.5-0.5C181.9,52.6,181.7,52.5,181.5,52.5z"/>
	<path class="st7" d="M187.1,60.8V50.4h1.8c0.1,0,0.3,0,0.4,0s0.2,0.1,0.3,0.1c0.1,0.1,0.1,0.1,0.2,0.2c0,0.1,0.1,0.2,0.1,0.3l0.2,1
		c0.3-0.5,0.8-1,1.3-1.4c0.4-0.3,1-0.5,1.5-0.5c0.4,0,0.8,0.1,1.1,0.3l-0.4,2.3c0,0.1-0.1,0.2-0.2,0.3s-0.2,0.1-0.3,0.1
		c-0.1,0-0.3,0-0.4,0c-0.2,0-0.4-0.1-0.6,0c-0.8,0-1.6,0.5-1.9,1.3v6.4L187.1,60.8z"/>
	<path class="st7" d="M201.5,60.8c-0.2,0-0.5,0-0.7-0.1s-0.3-0.3-0.4-0.5l-0.2-0.6c-0.2,0.2-0.5,0.4-0.8,0.6
		c-0.2,0.2-0.5,0.3-0.8,0.4c-0.3,0.1-0.5,0.2-0.8,0.3s-0.7,0.1-1,0.1c-0.4,0-0.9-0.1-1.3-0.2c-0.4-0.1-0.7-0.3-1-0.6
		c-0.3-0.2-0.5-0.6-0.6-0.9c-0.2-0.4-0.2-0.8-0.2-1.2s0.1-0.8,0.3-1.1c0.2-0.4,0.6-0.8,1-1.1c0.6-0.4,1.2-0.6,1.9-0.8
		c1-0.2,2-0.3,3-0.3v-0.4c0-0.5-0.1-0.9-0.4-1.3c-0.3-0.3-0.7-0.4-1.1-0.4c-0.3,0-0.6,0-0.9,0.1c-0.2,0.1-0.4,0.2-0.6,0.3l-0.5,0.3
		c-0.2,0.1-0.4,0.1-0.6,0.1s-0.4,0-0.5-0.2c-0.1-0.1-0.3-0.2-0.4-0.4l-0.6-1c0.6-0.5,1.3-1,2.1-1.2c0.8-0.3,1.6-0.4,2.5-0.4
		c0.6,0,1.2,0.1,1.7,0.3s0.9,0.5,1.3,0.8c0.4,0.4,0.6,0.8,0.8,1.3c0.2,0.5,0.3,1.1,0.3,1.6v6.5L201.5,60.8z M197.9,58.9
		c0.4,0,0.7-0.1,1-0.2c0.3-0.2,0.7-0.4,0.9-0.7v-1.4c-0.5,0-1,0-1.5,0.1c-0.3,0.1-0.6,0.2-1,0.3c-0.2,0.1-0.4,0.2-0.5,0.4
		s-0.1,0.3-0.1,0.5c0,0.3,0.1,0.6,0.3,0.8C197.4,58.8,197.7,58.9,197.9,58.9z"/>
	<path class="st7" d="M210.6,52.7c-0.1,0.1-0.2,0.2-0.3,0.3c-0.1,0.1-0.2,0.1-0.3,0.1c-0.2,0-0.3,0-0.4-0.1l-0.5-0.2
		c-0.2-0.1-0.4-0.1-0.6-0.2c-0.2-0.1-0.5-0.1-0.7-0.1c-0.3,0-0.6,0.1-0.9,0.2c-0.2,0.1-0.3,0.4-0.3,0.6c0,0.2,0.1,0.4,0.2,0.5
		c0.2,0.1,0.3,0.3,0.5,0.3c0.3,0.1,0.5,0.2,0.8,0.3l0.9,0.3c0.3,0.1,0.6,0.2,0.9,0.4c0.3,0.1,0.5,0.3,0.8,0.5
		c0.2,0.2,0.4,0.5,0.5,0.8s0.2,0.7,0.2,1.1c0,0.5-0.1,1-0.3,1.4c-0.2,0.4-0.5,0.8-0.8,1.1c-0.4,0.3-0.9,0.6-1.4,0.7
		c-0.6,0.2-1.2,0.3-1.9,0.3c-0.4,0-0.7,0-1.1-0.1c-0.7-0.1-1.3-0.3-1.9-0.7c-0.3-0.1-0.5-0.3-0.7-0.5l0.7-1.1
		c0.1-0.1,0.2-0.2,0.3-0.3c0.1-0.1,0.3-0.1,0.5-0.1s0.3,0,0.5,0.1l0.5,0.3c0.2,0.1,0.4,0.2,0.6,0.3c0.3,0.1,0.6,0.1,0.9,0.1
		c0.2,0,0.4,0,0.6-0.1c0.1,0,0.3-0.1,0.4-0.2c0.1-0.1,0.2-0.2,0.2-0.3s0.1-0.2,0.1-0.3c0-0.2-0.1-0.4-0.2-0.5
		c-0.2-0.1-0.3-0.3-0.5-0.3c-0.3-0.1-0.5-0.2-0.8-0.3s-0.6-0.2-0.9-0.3s-0.6-0.2-0.9-0.4c-0.3-0.1-0.5-0.3-0.8-0.6
		c-0.2-0.2-0.4-0.5-0.5-0.8c-0.2-0.4-0.2-0.8-0.2-1.2s0.1-0.9,0.3-1.3c0.2-0.4,0.4-0.7,0.8-1s0.8-0.6,1.3-0.7
		c0.6-0.2,1.2-0.3,1.8-0.3c0.4,0,0.7,0,1.1,0.1c0.3,0.1,0.7,0.2,1,0.3s0.6,0.3,0.8,0.4c0.2,0.2,0.5,0.3,0.7,0.5L210.6,52.7z"/>
	<path class="st7" d="M219.4,63.4c-0.1,0.2-0.2,0.3-0.3,0.5c-0.2,0.1-0.4,0.2-0.6,0.1h-2.3l2-4.2l-4.1-9.5h2.7c0.2,0,0.4,0,0.6,0.2
		c0.1,0.1,0.2,0.2,0.3,0.4l1.7,4.5c0.2,0.4,0.3,0.8,0.4,1.2c0.1-0.2,0.1-0.4,0.2-0.6s0.1-0.4,0.2-0.6l1.5-4.5
		c0.1-0.2,0.2-0.3,0.3-0.4c0.1-0.1,0.3-0.2,0.5-0.2h2.5L219.4,63.4z"/>
	<path class="st7" d="M236.5,49.1c-0.1,0.1-0.2,0.3-0.3,0.4c-0.1,0.1-0.3,0.1-0.4,0.1c-0.2,0-0.3-0.1-0.5-0.1l-0.6-0.3
		c-0.2-0.1-0.5-0.2-0.8-0.3s-0.7-0.2-1-0.2c-0.5,0-1,0.1-1.4,0.4c-0.3,0.3-0.5,0.7-0.5,1.1c0,0.3,0.1,0.5,0.3,0.7
		c0.2,0.2,0.5,0.4,0.7,0.5c0.3,0.2,0.7,0.3,1,0.4c0.4,0.1,0.8,0.2,1.2,0.4c0.4,0.1,0.8,0.3,1.2,0.5c0.4,0.2,0.7,0.4,1,0.7
		s0.6,0.7,0.7,1.1c0.2,0.5,0.3,1,0.3,1.6s-0.1,1.3-0.4,1.9c-0.2,0.6-0.6,1.1-1,1.5c-0.5,0.4-1,0.8-1.6,1c-0.7,0.3-1.5,0.4-2.2,0.4
		c-0.5,0-0.9,0-1.4-0.1s-0.9-0.2-1.4-0.4c-0.4-0.2-0.8-0.4-1.2-0.6c-0.4-0.2-0.7-0.5-1-0.8l1-1.6c0.1-0.1,0.2-0.2,0.3-0.3
		c0.1-0.1,0.3-0.1,0.4-0.1c0.2,0,0.4,0.1,0.6,0.2l0.7,0.4c0.3,0.2,0.6,0.3,0.9,0.4c0.4,0.1,0.8,0.2,1.2,0.2c0.5,0,1-0.1,1.4-0.4
		c0.4-0.3,0.6-0.8,0.5-1.3c0-0.3-0.1-0.6-0.3-0.8c-0.2-0.2-0.5-0.4-0.7-0.5c-0.3-0.1-0.7-0.3-1-0.4c-0.4-0.1-0.8-0.2-1.2-0.3
		c-0.4-0.1-0.8-0.3-1.2-0.5c-0.4-0.2-0.7-0.4-1-0.8c-0.3-0.3-0.6-0.7-0.7-1.2c-0.2-0.6-0.3-1.1-0.3-1.7c0-1.1,0.5-2.2,1.3-3
		c0.5-0.4,1-0.8,1.6-1c0.7-0.3,1.4-0.4,2.1-0.4c0.4,0,0.9,0,1.3,0.1s0.8,0.2,1.2,0.3c0.4,0.1,0.7,0.3,1.1,0.5
		c0.3,0.2,0.6,0.4,0.9,0.6L236.5,49.1z"/>
	<path class="st7" d="M242.8,50.2c0.6,0,1.3,0.1,1.9,0.3c1.1,0.4,2,1.3,2.4,2.4c0.2,0.6,0.4,1.3,0.4,2c0,0.2,0,0.4,0,0.6
		c0,0.1,0,0.2-0.1,0.3s-0.1,0.1-0.2,0.2c-0.1,0-0.2,0.1-0.3,0.1h-6c0,0.7,0.3,1.4,0.8,1.9c0.5,0.4,1,0.6,1.6,0.6
		c0.3,0,0.6,0,0.9-0.1c0.2-0.1,0.5-0.2,0.7-0.3l0.6-0.3c0.2-0.1,0.4-0.1,0.5-0.1c0.2,0,0.4,0.1,0.6,0.3l0.9,1.1
		c-0.3,0.3-0.6,0.7-1,0.9s-0.7,0.4-1.1,0.5s-0.8,0.2-1.2,0.3c-0.4,0-0.7,0.1-1.1,0.1c-0.7,0-1.4-0.1-2-0.3s-1.2-0.6-1.7-1.1
		s-0.9-1.1-1.1-1.7c-0.3-0.8-0.4-1.6-0.4-2.4c0-0.7,0.1-1.4,0.4-2c0.5-1.2,1.4-2.2,2.6-2.7C241.4,50.3,242.1,50.2,242.8,50.2z
		 M242.9,52.4c-0.5,0-1,0.2-1.4,0.5c-0.4,0.4-0.6,0.9-0.7,1.5h3.9c0-0.2,0-0.5-0.1-0.7s-0.2-0.4-0.3-0.6c-0.1-0.2-0.3-0.3-0.6-0.5
		C243.5,52.4,243.2,52.4,242.9,52.4z"/>
	<path class="st7" d="M248.4,60.8V50.4h1.8c0.1,0,0.3,0,0.4,0s0.2,0.1,0.3,0.1c0.1,0.1,0.1,0.1,0.2,0.2c0,0.1,0.1,0.2,0.1,0.3l0.2,1
		c0.3-0.5,0.8-1,1.3-1.4c0.4-0.3,1-0.5,1.5-0.5c0.4,0,0.8,0.1,1.1,0.3l-0.4,2.3c0,0.1-0.1,0.2-0.2,0.3s-0.2,0.1-0.3,0.1
		c-0.1,0-0.3,0-0.4,0c-0.2,0-0.4-0.1-0.6,0c-0.8,0-1.6,0.5-1.9,1.3v6.4L248.4,60.8z"/>
	<path class="st7" d="M261.5,60.8h-2.8l-4-10.4h2.6c0.2,0,0.4,0,0.5,0.2c0.1,0.1,0.2,0.2,0.3,0.4l1.4,4.6c0.1,0.4,0.2,0.8,0.3,1.1
		s0.2,0.7,0.3,1.1c0.1-0.4,0.2-0.7,0.3-1.1c0.1-0.4,0.2-0.7,0.3-1.1l1.5-4.7c0.1-0.2,0.2-0.3,0.3-0.4c0.2-0.1,0.3-0.2,0.5-0.2h2.5
		L261.5,60.8z"/>
	<path class="st7" d="M269.6,47.5c0,0.2,0,0.5-0.1,0.7s-0.2,0.4-0.4,0.6c-0.2,0.2-0.4,0.3-0.6,0.4c-0.2,0.1-0.5,0.1-0.7,0.1
		s-0.5,0-0.7-0.1s-0.4-0.2-0.6-0.4s-0.3-0.4-0.4-0.6c-0.1-0.2-0.2-0.5-0.1-0.7c0-0.2,0-0.5,0.1-0.7s0.2-0.4,0.4-0.6
		c0.2-0.2,0.4-0.3,0.6-0.4c0.2-0.1,0.5-0.1,0.7-0.1s0.5,0,0.7,0.1s0.4,0.2,0.6,0.4s0.3,0.4,0.4,0.6
		C269.5,47.1,269.6,47.3,269.6,47.5z M269.2,50.4v10.4h-3.1V50.4H269.2z"/>
	<path class="st7" d="M278.3,52.9c-0.1,0.1-0.2,0.2-0.3,0.3c-0.1,0.1-0.2,0.1-0.4,0.1c-0.1,0-0.3,0-0.4-0.1l-0.4-0.2
		c-0.2-0.1-0.4-0.2-0.5-0.3c-0.2-0.1-0.5-0.1-0.8-0.1s-0.7,0.1-1,0.2c-0.3,0.1-0.5,0.3-0.7,0.6s-0.3,0.6-0.4,1s-0.1,0.8-0.1,1.3
		c-0.1,0.8,0.1,1.6,0.6,2.3c0.4,0.5,1,0.8,1.6,0.8c0.3,0,0.6,0,0.9-0.1c0.2-0.1,0.4-0.2,0.5-0.3l0.4-0.3c0.1-0.1,0.3-0.1,0.5-0.1
		s0.4,0.1,0.5,0.3l0.9,1.1c-0.3,0.3-0.6,0.6-1,0.9c-0.3,0.2-0.7,0.4-1.1,0.5s-0.7,0.2-1.1,0.3c-0.4,0-0.7,0.1-1.1,0.1
		c-0.6,0-1.2-0.1-1.8-0.4c-0.6-0.2-1.1-0.6-1.5-1c-0.4-0.5-0.8-1.1-1-1.7c-0.3-0.7-0.4-1.5-0.4-2.3c0-0.7,0.1-1.4,0.3-2.1
		c0.4-1.3,1.4-2.3,2.6-2.8c0.7-0.3,1.5-0.4,2.2-0.4s1.5,0.1,2.1,0.4c0.6,0.3,1.2,0.7,1.7,1.1L278.3,52.9z"/>
	<path class="st7" d="M283.2,47.5c0,0.2,0,0.5-0.1,0.7s-0.2,0.4-0.4,0.6c-0.2,0.2-0.4,0.3-0.6,0.4c-0.2,0.1-0.5,0.1-0.7,0.1
		s-0.5,0-0.7-0.1s-0.4-0.2-0.6-0.4s-0.3-0.4-0.4-0.6c-0.1-0.2-0.1-0.5-0.1-0.7s0-0.5,0.1-0.7s0.2-0.4,0.4-0.6
		c0.2-0.2,0.4-0.3,0.6-0.4c0.2-0.1,0.5-0.1,0.7-0.1s0.5,0,0.7,0.1s0.4,0.2,0.6,0.4s0.3,0.4,0.4,0.6
		C283.2,47.1,283.2,47.3,283.2,47.5z M282.9,50.4v10.4h-3.1V50.4H282.9z"/>
	<path class="st7" d="M289.2,50.2c0.7,0,1.5,0.1,2.1,0.4c0.6,0.2,1.2,0.6,1.7,1.1s0.8,1.1,1.1,1.7c0.3,0.7,0.4,1.5,0.4,2.2
		c0,0.8-0.1,1.5-0.4,2.2c-0.2,0.6-0.6,1.2-1.1,1.7s-1,0.8-1.7,1.1c-1.4,0.5-2.9,0.5-4.3,0c-1.3-0.5-2.3-1.5-2.8-2.8
		c-0.3-0.7-0.4-1.5-0.4-2.2c0-0.8,0.1-1.5,0.4-2.2c0.2-0.6,0.6-1.2,1.1-1.7s1.1-0.8,1.7-1.1C287.7,50.3,288.4,50.2,289.2,50.2z
		 M289.2,58.6c0.6,0,1.2-0.2,1.6-0.8c0.7-1.5,0.7-3.1,0-4.6c-0.4-0.5-1-0.8-1.6-0.8c-0.6-0.1-1.2,0.2-1.6,0.8
		c-0.7,1.5-0.7,3.1,0,4.6C287.9,58.4,288.5,58.7,289.2,58.6z"/>
	<path class="st7" d="M301.6,52.7c-0.1,0.1-0.1,0.2-0.3,0.3c-0.1,0.1-0.2,0.1-0.3,0.1c-0.2,0-0.3,0-0.5-0.1l-0.5-0.2
		c-0.2-0.1-0.4-0.1-0.6-0.2c-0.2-0.1-0.5-0.1-0.7-0.1c-0.3,0-0.6,0.1-0.9,0.2c-0.2,0.1-0.3,0.4-0.3,0.6c0,0.2,0.1,0.4,0.2,0.5
		c0.2,0.1,0.3,0.3,0.5,0.3c0.2,0.1,0.5,0.2,0.8,0.3l0.9,0.3c0.3,0.1,0.6,0.2,0.9,0.4c0.3,0.1,0.5,0.3,0.8,0.5
		c0.2,0.2,0.4,0.5,0.5,0.8s0.2,0.7,0.2,1.1c0,0.5-0.1,1-0.3,1.4c-0.2,0.4-0.5,0.8-0.8,1.1c-0.4,0.3-0.9,0.6-1.4,0.7
		c-0.6,0.2-1.2,0.3-1.9,0.3c-0.4,0-0.7,0-1.1-0.1c-0.3-0.1-0.7-0.2-1-0.3s-0.6-0.2-0.9-0.4c-0.3-0.1-0.5-0.3-0.7-0.5l0.7-1.1
		c0.1-0.1,0.2-0.2,0.3-0.3c0.1-0.1,0.3-0.1,0.5-0.1s0.3,0,0.5,0.1l0.5,0.3c0.2,0.1,0.4,0.2,0.6,0.3c0.3,0.1,0.6,0.1,0.8,0.1
		c0.2,0,0.4,0,0.6-0.1c0.1,0,0.3-0.1,0.4-0.2c0.1-0.1,0.2-0.2,0.2-0.3c0.1-0.3,0.1-0.6-0.1-0.8c-0.2-0.1-0.4-0.3-0.6-0.3
		c-0.2-0.1-0.5-0.2-0.8-0.3s-0.6-0.2-0.9-0.3s-0.6-0.2-0.9-0.4c-0.3-0.1-0.5-0.3-0.8-0.6c-0.2-0.2-0.4-0.5-0.6-0.8
		c-0.2-0.4-0.2-0.8-0.2-1.2s0.1-0.9,0.3-1.3c0.2-0.4,0.4-0.7,0.8-1s0.8-0.6,1.3-0.7c0.6-0.2,1.2-0.3,1.8-0.3c0.4,0,0.7,0,1.1,0.1
		c0.3,0.1,0.7,0.2,1,0.3s0.6,0.3,0.8,0.4c0.2,0.2,0.5,0.3,0.7,0.5L301.6,52.7z"/>
	<path class="st7" d="M309.6,55.9v4.9h-3.4V46.2h5.1c0.9,0,1.8,0.1,2.6,0.4c0.7,0.2,1.3,0.5,1.8,1c0.5,0.4,0.8,0.9,1,1.5
		s0.3,1.2,0.3,1.9s-0.1,1.4-0.4,2c-0.2,0.6-0.6,1.1-1.1,1.6s-1.2,0.8-1.8,1c-0.8,0.3-1.7,0.4-2.6,0.4h-1.5V55.9z M309.6,53.3h1.8
		c1.2,0.2,2.3-0.6,2.5-1.8c0-0.2,0-0.4,0-0.6c0-0.3,0-0.6-0.1-0.9c-0.1-0.3-0.2-0.5-0.5-0.7c-0.2-0.2-0.5-0.4-0.8-0.5
		c-0.4-0.1-0.7-0.2-1.1-0.2h-1.8V53.3z"/>
	<path class="st7" d="M321,50.4V57c0,0.4,0.1,0.8,0.4,1.2c0.3,0.3,0.6,0.4,1,0.4c0.3,0,0.7-0.1,1-0.2c0.3-0.1,0.6-0.3,0.9-0.6v-7.4
		h3.1v10.4h-1.9c-0.3,0-0.7-0.2-0.8-0.5l-0.2-0.6c-0.2,0.2-0.4,0.4-0.6,0.5c-0.2,0.2-0.4,0.3-0.7,0.4c-0.3,0.1-0.5,0.2-0.8,0.3
		s-0.6,0.1-0.9,0.1c-0.5,0-1-0.1-1.5-0.3c-0.4-0.2-0.8-0.5-1.1-0.8c-0.3-0.4-0.5-0.8-0.7-1.3s-0.2-1-0.2-1.6v-6.6
		C318,50.4,321,50.4,321,50.4z M326.7,46l-2.6,2.6c-0.1,0.1-0.3,0.2-0.4,0.3c-0.2,0.1-0.4,0.1-0.6,0.1h-1.8l1.4-2.5
		c0.1-0.2,0.2-0.3,0.4-0.4c0.2-0.1,0.5-0.2,0.7-0.2L326.7,46z"/>
	<path class="st7" d="M328.9,60.8v-15h3.1v5.7c0.4-0.4,0.8-0.7,1.3-0.9s1.1-0.4,1.7-0.3c0.5,0,1,0.1,1.5,0.3s0.9,0.6,1.2,1
		c0.4,0.5,0.6,1.1,0.8,1.7c0.2,0.7,0.3,1.5,0.3,2.2s-0.1,1.5-0.3,2.2c-0.2,0.6-0.5,1.2-0.9,1.7s-0.9,0.9-1.4,1.1
		c-0.6,0.3-1.2,0.4-1.8,0.4c-0.3,0-0.6,0-0.8-0.1c-0.2-0.1-0.5-0.1-0.7-0.3c-0.2-0.1-0.4-0.2-0.6-0.4s-0.3-0.3-0.5-0.5l-0.1,0.5
		c0,0.2-0.1,0.3-0.3,0.4c-0.1,0.1-0.3,0.1-0.5,0.1L328.9,60.8z M333.9,52.5c-0.2,0-0.4,0-0.6,0.1c-0.4,0.1-0.7,0.2-1,0.5
		c-0.1,0.1-0.3,0.3-0.4,0.4v4.4c0.2,0.2,0.5,0.4,0.8,0.6c0.3,0.1,0.6,0.2,0.9,0.2s0.5-0.1,0.8-0.2c0.3-0.1,0.5-0.3,0.6-0.5
		c0.2-0.3,0.3-0.6,0.4-1c0.1-0.5,0.2-1,0.1-1.5c0-0.5,0-0.9-0.1-1.4c-0.1-0.3-0.2-0.6-0.3-0.9c-0.1-0.2-0.3-0.4-0.5-0.5
		C334.4,52.6,334.2,52.5,333.9,52.5z"/>
	<path class="st7" d="M342.8,45.8v15h-3.1v-15H342.8z"/>
	<path class="st7" d="M348,47.5c0,0.2,0,0.5-0.1,0.7s-0.2,0.4-0.4,0.6c-0.2,0.2-0.4,0.3-0.6,0.4c-0.2,0.1-0.5,0.1-0.7,0.1
		s-0.5,0-0.7-0.1s-0.4-0.2-0.6-0.4s-0.3-0.4-0.4-0.6c-0.1-0.2-0.2-0.5-0.1-0.7c0-0.2,0-0.5,0.1-0.7s0.2-0.4,0.4-0.6
		c0.2-0.2,0.4-0.3,0.6-0.4c0.2-0.1,0.5-0.1,0.7-0.1c0.3,0,0.5,0,0.7,0.1s0.4,0.2,0.6,0.4s0.3,0.4,0.4,0.6
		C348,47.1,348,47.3,348,47.5z M347.6,50.4v10.4h-3.1V50.4H347.6z"/>
	<path class="st7" d="M356.8,52.9c-0.1,0.1-0.2,0.2-0.3,0.3c-0.1,0.1-0.2,0.1-0.4,0.1c-0.1,0-0.3,0-0.4-0.1l-0.4-0.2
		c-0.2-0.1-0.4-0.2-0.5-0.3c-0.2-0.1-0.5-0.1-0.8-0.1s-0.7,0.1-1,0.2c-0.3,0.1-0.5,0.3-0.7,0.6s-0.3,0.6-0.4,1s-0.1,0.8-0.1,1.3
		c-0.1,0.8,0.1,1.6,0.6,2.3c0.4,0.5,1,0.8,1.6,0.8c0.3,0,0.6,0,0.9-0.1c0.2-0.1,0.4-0.2,0.5-0.3l0.4-0.3c0.1-0.1,0.3-0.1,0.5-0.1
		s0.4,0.1,0.6,0.3l0.9,1.1c-0.3,0.3-0.6,0.6-1,0.9c-0.3,0.2-0.7,0.4-1.1,0.5s-0.7,0.2-1.1,0.3c-0.4,0-0.7,0.1-1.1,0.1
		c-0.6,0-1.2-0.1-1.8-0.4c-0.6-0.2-1.1-0.6-1.5-1c-0.4-0.5-0.8-1.1-1-1.7c-0.5-1.4-0.5-2.9,0-4.4c0.2-0.6,0.6-1.2,1-1.7
		c0.5-0.5,1-0.9,1.6-1.1c0.7-0.3,1.5-0.4,2.2-0.4s1.5,0.1,2.1,0.4c0.6,0.3,1.2,0.7,1.7,1.1L356.8,52.9z"/>
	<path class="st7" d="M362.8,50.2c0.7,0,1.5,0.1,2.1,0.4c0.6,0.2,1.2,0.6,1.7,1.1s0.8,1.1,1.1,1.7c0.3,0.7,0.4,1.5,0.4,2.2
		c0,0.8-0.1,1.5-0.4,2.2c-0.2,0.6-0.6,1.2-1.1,1.7s-1,0.8-1.7,1.1s-1.4,0.4-2.1,0.4s-1.5-0.1-2.2-0.4c-0.6-0.2-1.2-0.6-1.7-1.1
		s-0.9-1.1-1.1-1.7c-0.3-0.7-0.4-1.5-0.4-2.2c0-0.8,0.1-1.5,0.4-2.2c0.2-0.6,0.6-1.2,1.1-1.7s1.1-0.8,1.7-1.1
		C361.3,50.3,362,50.2,362.8,50.2z M362.8,58.6c0.6,0,1.2-0.2,1.6-0.8c0.7-1.5,0.7-3.1,0-4.6c-0.4-0.5-1-0.8-1.6-0.8
		s-1.2,0.2-1.6,0.8c-0.7,1.5-0.7,3.1,0,4.6C361.5,58.4,362.1,58.7,362.8,58.6z"/>
	<path class="st7" d="M375.2,52.7c-0.1,0.1-0.1,0.2-0.3,0.3c-0.1,0.1-0.2,0.1-0.4,0.1c-0.2,0-0.3,0-0.4-0.1l-0.5-0.2
		c-0.2-0.1-0.4-0.1-0.6-0.2c-0.2-0.1-0.5-0.1-0.7-0.1c-0.3,0-0.6,0.1-0.9,0.2c-0.2,0.1-0.3,0.4-0.3,0.6c0,0.2,0.1,0.4,0.2,0.5
		c0.2,0.1,0.3,0.3,0.5,0.3c0.2,0.1,0.5,0.2,0.8,0.3l0.9,0.3c0.3,0.1,0.6,0.2,0.9,0.4c0.3,0.1,0.5,0.3,0.8,0.5
		c0.2,0.2,0.4,0.5,0.5,0.8s0.2,0.7,0.2,1.1c0,0.5-0.1,1-0.3,1.4c-0.2,0.4-0.5,0.8-0.8,1.1c-0.4,0.3-0.9,0.6-1.4,0.7
		c-0.6,0.2-1.2,0.3-1.9,0.3c-0.4,0-0.7,0-1.1-0.1c-0.7-0.1-1.3-0.3-1.9-0.7c-0.3-0.1-0.5-0.3-0.7-0.5l0.7-1.1
		c0.1-0.1,0.2-0.2,0.3-0.3c0.1-0.1,0.3-0.1,0.5-0.1s0.3,0,0.5,0.1l0.5,0.3c0.2,0.1,0.4,0.2,0.6,0.3c0.3,0.1,0.6,0.1,0.8,0.1
		c0.2,0,0.4,0,0.6-0.1c0.1,0,0.3-0.1,0.4-0.2c0.1-0.1,0.2-0.2,0.2-0.3s0.1-0.2,0.1-0.3c0-0.2-0.1-0.4-0.2-0.5
		c-0.2-0.1-0.3-0.3-0.5-0.3c-0.2-0.1-0.5-0.2-0.8-0.3s-0.6-0.2-0.9-0.3s-0.6-0.2-0.9-0.4c-0.3-0.1-0.6-0.3-0.8-0.6
		c-0.2-0.2-0.4-0.5-0.5-0.8c-0.2-0.4-0.2-0.8-0.2-1.2s0.1-0.9,0.3-1.3c0.2-0.4,0.4-0.7,0.8-1s0.8-0.6,1.3-0.7
		c0.6-0.2,1.2-0.3,1.8-0.3c0.4,0,0.7,0,1.1,0.1c0.3,0.1,0.7,0.2,1,0.3s0.6,0.3,0.8,0.4c0.2,0.1,0.5,0.3,0.7,0.5L375.2,52.7z"/>
	<path class="st7" d="M61.5,81.7h-2.6c-0.3,0-0.5-0.1-0.7-0.2s-0.3-0.3-0.4-0.5l-0.9-2.5h-5.5L50.5,81c-0.1,0.2-0.2,0.4-0.4,0.5
		c-0.2,0.2-0.5,0.2-0.7,0.2h-2.6l5.6-14.6h3.5L61.5,81.7z M52.2,76.2h4l-1.3-4c-0.1-0.3-0.2-0.6-0.3-0.9s-0.2-0.7-0.4-1.1
		c-0.1,0.4-0.2,0.8-0.3,1.1c-0.1,0.3-0.2,0.6-0.3,0.9L52.2,76.2z"/>
	<path class="st7" d="M65.1,71.2c0.4,0,0.8,0,1.3,0.1c0.4,0.1,0.7,0.2,1.1,0.4h3.1v1.2c0,0.2,0,0.3-0.1,0.4s-0.3,0.2-0.5,0.2
		l-0.8,0.2c0.2,0.8,0.2,1.6-0.2,2.3c-0.2,0.4-0.5,0.7-0.9,1s-0.9,0.5-1.3,0.7c-0.5,0.2-1.1,0.2-1.6,0.2c-0.3,0-0.6,0-0.9-0.1
		c-0.2,0.1-0.3,0.3-0.3,0.5s0.1,0.3,0.3,0.4s0.5,0.1,0.7,0.2c0.3,0,0.6,0,1,0s0.8,0,1.2,0.1c0.4,0,0.8,0.1,1.2,0.2s0.7,0.2,1,0.4
		c0.3,0.2,0.6,0.5,0.7,0.8c0.2,0.4,0.3,0.8,0.3,1.2c0,0.5-0.1,1-0.3,1.4c-0.2,0.5-0.6,0.9-1,1.2c-0.5,0.4-1,0.7-1.6,0.8
		c-0.7,0.2-1.5,0.3-2.2,0.3s-1.4-0.1-2.1-0.2c-0.5-0.1-1-0.3-1.5-0.6c-0.4-0.2-0.7-0.5-0.9-0.9c-0.2-0.3-0.3-0.6-0.3-1
		s0.1-0.8,0.4-1.2c0.3-0.3,0.7-0.6,1.1-0.8c-0.2-0.2-0.4-0.4-0.6-0.6c-0.1-0.3-0.2-0.6-0.2-0.9c0-0.2,0-0.3,0.1-0.5s0.1-0.3,0.3-0.5
		c0.1-0.2,0.3-0.3,0.4-0.5c0.2-0.2,0.4-0.3,0.6-0.4c-0.5-0.3-0.9-0.6-1.2-1.1c-0.6-0.9-0.6-2.1-0.1-3.1c0.2-0.4,0.5-0.8,0.9-1.1
		c0.4-0.3,0.9-0.5,1.4-0.7C63.9,71.3,64.5,71.2,65.1,71.2z M67.4,82.1c0-0.2,0-0.3-0.1-0.4s-0.3-0.2-0.4-0.2
		c-0.2-0.1-0.4-0.1-0.6-0.1c-0.3,0-0.5,0-0.8,0h-0.9c-0.3,0-0.6,0-0.9-0.1c-0.2,0.1-0.3,0.3-0.5,0.4c-0.1,0.2-0.2,0.4-0.2,0.6
		c0,0.1,0,0.3,0.1,0.4s0.2,0.2,0.3,0.3c0.2,0.1,0.4,0.2,0.6,0.2c0.3,0.1,0.7,0.1,1,0.1c0.4,0,0.7,0,1.1-0.1c0.2,0,0.5-0.1,0.7-0.2
		c0.1-0.1,0.3-0.2,0.4-0.3C67.3,82.4,67.4,82.3,67.4,82.1z M65.1,76c0.7,0.1,1.3-0.4,1.5-1.1c0-0.1,0-0.2,0-0.3c0-0.4-0.1-0.7-0.3-1
		c-0.3-0.3-0.7-0.4-1.1-0.4c-0.4,0-0.8,0.1-1.1,0.4c-0.2,0.3-0.4,0.6-0.4,1c0,0.2,0,0.4,0.1,0.5c0,0.2,0.1,0.3,0.3,0.4
		c0.1,0.1,0.3,0.2,0.5,0.3C64.6,76,64.8,76,65.1,76z"/>
	<path class="st7" d="M73.4,71.4V78c0,0.4,0.1,0.9,0.4,1.2c0.3,0.3,0.6,0.4,1,0.4c0.3,0,0.7-0.1,1-0.2s0.6-0.3,0.9-0.6v-7.4h3.1
		v10.4h-1.9c-0.3,0-0.7-0.2-0.8-0.5l-0.2-0.6c-0.2,0.2-0.4,0.4-0.6,0.5c-0.2,0.2-0.4,0.3-0.7,0.4s-0.5,0.2-0.8,0.3
		C74.5,82,74.2,82,73.9,82c-0.5,0-1-0.1-1.5-0.3c-0.4-0.2-0.8-0.5-1.1-0.8c-0.3-0.4-0.5-0.8-0.7-1.3s-0.2-1-0.2-1.6v-6.6H73.4z"/>
	<path class="st7" d="M88,81.7c-0.2,0-0.5,0-0.7-0.1s-0.3-0.3-0.4-0.5l-0.2-0.6c-0.3,0.2-0.5,0.4-0.8,0.6c-0.2,0.2-0.5,0.3-0.7,0.4
		c-0.3,0.1-0.5,0.2-0.8,0.3c-0.3,0.1-0.7,0.1-1,0.1c-0.4,0-0.9-0.1-1.3-0.2c-0.4-0.1-0.7-0.3-1-0.6c-0.3-0.2-0.5-0.6-0.6-0.9
		c-0.2-0.4-0.2-0.8-0.2-1.2c0-0.4,0.1-0.8,0.3-1.1c0.2-0.4,0.6-0.8,1-1.1c0.6-0.4,1.2-0.6,1.9-0.8c1-0.2,2-0.3,2.9-0.3v-0.4
		c0-0.5-0.1-0.9-0.4-1.3c-0.3-0.3-0.7-0.4-1.1-0.4c-0.3,0-0.6,0-0.9,0.1c-0.2,0.1-0.4,0.2-0.6,0.3l-0.5,0.3
		c-0.2,0.1-0.4,0.1-0.6,0.1c-0.2,0-0.4,0-0.5-0.2c-0.1-0.1-0.3-0.2-0.4-0.4l-0.6-1c0.6-0.5,1.3-1,2.1-1.2c0.8-0.3,1.6-0.4,2.4-0.4
		c0.6,0,1.2,0.1,1.7,0.3c1,0.4,1.7,1.2,2.1,2.1c0.2,0.5,0.3,1.1,0.3,1.6v6.5L88,81.7z M84.4,79.9c0.4,0,0.7-0.1,1.1-0.2
		c0.3-0.2,0.6-0.4,0.9-0.7v-1.4c-0.5,0-1,0-1.5,0.1c-0.3,0.1-0.6,0.2-0.9,0.3c-0.2,0.1-0.4,0.2-0.5,0.4c-0.1,0.1-0.2,0.3-0.2,0.5
		c0,0.3,0.1,0.6,0.3,0.8C83.8,79.8,84.1,79.9,84.4,79.9z"/>
	<path class="st7" d="M97.1,84.4c-0.1,0.2-0.2,0.3-0.3,0.5c-0.2,0.1-0.4,0.2-0.6,0.1h-2.3l2-4.2l-4.1-9.5h2.7c0.4,0,0.7,0.2,0.8,0.5
		l1.7,4.5c0.2,0.4,0.3,0.8,0.4,1.2c0.1-0.2,0.1-0.4,0.2-0.6s0.2-0.4,0.2-0.6l1.5-4.5c0.1-0.2,0.2-0.3,0.3-0.4s0.3-0.2,0.5-0.2h2.5
		L97.1,84.4z"/>
	<path class="st7" d="M112.9,75.9c0.1,0.3,0.2,0.6,0.4,0.8c0.1-0.3,0.2-0.6,0.4-0.9s0.3-0.6,0.4-0.8l3.7-7.4
		c0.1-0.1,0.1-0.2,0.2-0.3c0.1-0.1,0.1-0.1,0.2-0.2c0.1,0,0.2-0.1,0.3-0.1h3v14.6h-3v-8.4c0-0.4,0-0.8,0.1-1.3l-3.9,7.5
		c-0.1,0.2-0.3,0.4-0.5,0.5s-0.4,0.2-0.7,0.2H113c-0.2,0-0.5-0.1-0.7-0.2s-0.4-0.3-0.5-0.5L108,72c0,0.2,0.1,0.5,0.1,0.7
		s0,0.4,0,0.6v8.4h-3V67.2h3c0.1,0,0.2,0,0.3,0.1c0.1,0,0.2,0.1,0.2,0.2c0.1,0.1,0.2,0.2,0.2,0.3l3.8,7.4L112.9,75.9z"/>
	<path class="st7" d="M127,71.2c0.6,0,1.3,0.1,1.9,0.3c1.1,0.4,2,1.3,2.4,2.4c0.2,0.6,0.4,1.3,0.4,2c0,0.2,0,0.4,0,0.6
		c0,0.1-0.1,0.2-0.1,0.4c-0.1,0.1-0.1,0.1-0.2,0.2c-0.1,0-0.2,0-0.3,0h-6c0,0.7,0.3,1.4,0.8,1.9c0.5,0.4,1,0.6,1.6,0.6
		c0.3,0,0.6,0,0.9-0.1c0.2-0.1,0.5-0.2,0.7-0.3l0.6-0.3c0.2-0.1,0.4-0.1,0.5-0.1c0.2,0,0.4,0.1,0.6,0.3l0.9,1.1
		c-0.3,0.3-0.6,0.7-1,0.9c-0.4,0.2-0.7,0.4-1.1,0.5c-0.4,0.2-0.8,0.3-1.2,0.3s-0.7,0.1-1.1,0.1c-0.7,0-1.4-0.1-2-0.3
		c-0.6-0.2-1.2-0.6-1.7-1.1s-0.9-1.1-1.2-1.8c-0.3-0.8-0.4-1.6-0.4-2.4c0-0.7,0.1-1.4,0.4-2c0.2-0.6,0.6-1.2,1-1.6
		c0.5-0.5,1-0.9,1.6-1.1C125.5,71.3,126.2,71.2,127,71.2z M127.1,73.3c-0.5,0-1,0.2-1.4,0.5c-0.4,0.4-0.6,0.9-0.7,1.5h3.9
		c0-0.2,0-0.5-0.1-0.7s-0.2-0.4-0.3-0.6c-0.2-0.2-0.3-0.3-0.6-0.4C127.6,73.4,127.3,73.3,127.1,73.3z"/>
	<path class="st7" d="M139.4,81.7c-0.2,0-0.3,0-0.5-0.1c-0.1-0.1-0.2-0.2-0.3-0.4l-0.2-0.8c-0.2,0.2-0.4,0.4-0.6,0.6
		c-0.2,0.2-0.5,0.3-0.7,0.5c-0.3,0.1-0.6,0.2-0.9,0.3c-0.3,0.1-0.7,0.1-1,0.1c-0.5,0-1-0.1-1.5-0.4c-0.5-0.2-0.9-0.6-1.2-1
		c-0.4-0.5-0.6-1.1-0.8-1.7c-0.2-0.7-0.3-1.5-0.3-2.3c0-0.7,0.1-1.5,0.3-2.2c0.2-0.6,0.5-1.2,0.9-1.7s0.9-0.9,1.4-1.1
		c0.6-0.3,1.2-0.4,1.8-0.4c0.5,0,0.9,0.1,1.4,0.2c0.4,0.2,0.7,0.4,1,0.6v-5.3h3.1v15L139.4,81.7z M136.2,79.5c0.2,0,0.4,0,0.6-0.1
		c0.2,0,0.3-0.1,0.5-0.2s0.3-0.2,0.4-0.3c0.1-0.1,0.3-0.3,0.4-0.4v-4.4c-0.2-0.2-0.5-0.4-0.8-0.5s-0.6-0.2-0.9-0.2
		c-0.3,0-0.5,0.1-0.8,0.2s-0.5,0.3-0.6,0.6c-0.2,0.3-0.3,0.6-0.4,1c-0.1,0.5-0.2,1-0.1,1.4c0,0.5,0,0.9,0.1,1.4
		c0.1,0.3,0.2,0.6,0.3,0.9C135.3,79.3,135.8,79.6,136.2,79.5L136.2,79.5z"/>
	<path class="st7" d="M145.9,68.5c0,0.2,0,0.5-0.1,0.7s-0.2,0.4-0.4,0.6s-0.4,0.3-0.6,0.4c-0.2,0.1-0.5,0.1-0.7,0.1s-0.5,0-0.7-0.1
		s-0.4-0.2-0.6-0.4c-0.2-0.2-0.3-0.4-0.4-0.6c-0.1-0.2-0.1-0.5-0.1-0.7s0-0.5,0.1-0.7s0.2-0.4,0.4-0.6s0.4-0.3,0.6-0.4
		c0.2-0.1,0.5-0.1,0.7-0.1s0.5,0,0.7,0.1s0.4,0.2,0.6,0.4c0.2,0.2,0.3,0.4,0.4,0.6C145.9,68,146,68.3,145.9,68.5z M145.6,71.4v10.4
		h-3.1V71.4H145.6z"/>
	<path class="st7" d="M151.4,71.2c0.7,0,1.5,0.1,2.1,0.4c0.6,0.2,1.2,0.6,1.7,1.1s0.8,1,1,1.7c0.3,0.7,0.4,1.5,0.4,2.2
		c0,0.8-0.1,1.5-0.4,2.2c-0.2,0.6-0.5,1.2-1,1.7s-1,0.8-1.7,1.1c-0.7,0.3-1.4,0.4-2.1,0.4c-0.7,0-1.5-0.1-2.2-0.4
		c-0.6-0.2-1.2-0.6-1.7-1.1s-0.9-1.1-1.1-1.7c-0.3-0.7-0.4-1.5-0.4-2.2c0-0.8,0.1-1.5,0.4-2.2c0.2-0.6,0.6-1.2,1.1-1.7
		s1-0.8,1.7-1.1S150.7,71.2,151.4,71.2z M151.4,79.6c0.6,0,1.2-0.2,1.6-0.8c0.7-1.5,0.7-3.1,0-4.6c-0.4-0.5-1-0.8-1.6-0.8
		s-1.2,0.2-1.6,0.8c-0.7,1.5-0.7,3.1,0,4.6C150.1,79.4,150.8,79.6,151.4,79.6z"/>
	<path class="st7" d="M173.2,81.7h-2.6c-0.3,0-0.5-0.1-0.7-0.2s-0.3-0.3-0.4-0.5l-0.9-2.5H163l-0.9,2.5c-0.1,0.2-0.2,0.4-0.4,0.5
		c-0.2,0.2-0.5,0.2-0.7,0.2h-2.6l5.6-14.6h3.5L173.2,81.7z M163.8,76.2h4l-1.3-4l-0.3-0.9c-0.1-0.3-0.2-0.7-0.3-1.1
		c-0.1,0.4-0.2,0.8-0.3,1.1c-0.1,0.3-0.2,0.6-0.3,0.9L163.8,76.2z"/>
	<path class="st7" d="M173,81.7V71.4h1.9c0.2,0,0.3,0,0.5,0.1c0.1,0.1,0.2,0.2,0.3,0.4l0.2,0.6c0.2-0.2,0.3-0.3,0.5-0.5
		s0.4-0.3,0.6-0.4c0.2-0.1,0.5-0.2,0.7-0.3c0.3-0.1,0.6-0.1,0.8-0.1c0.6,0,1.1,0.1,1.5,0.5c0.4,0.3,0.7,0.8,0.9,1.3
		c0.2-0.3,0.4-0.6,0.6-0.8c0.2-0.2,0.5-0.4,0.8-0.6c0.3-0.1,0.6-0.2,0.9-0.3c0.3-0.1,0.7-0.1,1-0.1c0.5,0,1.1,0.1,1.6,0.3
		c0.4,0.2,0.8,0.4,1.1,0.8s0.6,0.8,0.7,1.2c0.2,0.5,0.2,1.1,0.2,1.7v6.6H185v-6.6c0-1.1-0.5-1.6-1.4-1.6c-0.4,0-0.8,0.1-1,0.4
		c-0.3,0.3-0.4,0.8-0.4,1.2v6.6H179v-6.6c0-0.5-0.1-0.9-0.4-1.3c-0.3-0.2-0.6-0.4-1-0.4c-0.3,0-0.6,0.1-0.8,0.2
		c-0.3,0.1-0.5,0.3-0.7,0.5v7.5L173,81.7z"/>
	<path class="st7" d="M188.9,81.7v-15h3.1v5.7c0.4-0.4,0.8-0.7,1.3-0.9c0.5-0.2,1.1-0.4,1.7-0.3c0.5,0,1,0.1,1.5,0.3
		c0.5,0.2,0.9,0.6,1.2,1c0.4,0.5,0.6,1.1,0.8,1.7c0.2,0.7,0.3,1.5,0.3,2.2s-0.1,1.5-0.3,2.2c-0.2,0.6-0.5,1.2-0.9,1.7
		s-0.9,0.9-1.4,1.1c-0.6,0.3-1.2,0.4-1.8,0.4c-0.3,0-0.6,0-0.8-0.1c-0.2-0.1-0.5-0.2-0.7-0.3c-0.2-0.1-0.4-0.2-0.6-0.4
		c-0.2-0.2-0.3-0.3-0.5-0.5l-0.1,0.5c0,0.2-0.1,0.3-0.3,0.4c-0.1,0.1-0.3,0.1-0.5,0.1L188.9,81.7z M194,73.5c-0.2,0-0.4,0-0.6,0.1
		c-0.2,0-0.3,0.1-0.5,0.2s-0.3,0.2-0.4,0.3c-0.1,0.1-0.3,0.3-0.4,0.4v4.4c0.2,0.2,0.5,0.4,0.8,0.6c0.3,0.1,0.6,0.2,0.9,0.2
		s0.5-0.1,0.8-0.2s0.5-0.3,0.6-0.5c0.2-0.3,0.3-0.6,0.4-1c0.1-0.5,0.2-1,0.1-1.4c0-0.5,0-0.9-0.1-1.4c-0.1-0.3-0.2-0.6-0.3-0.9
		c-0.1-0.2-0.3-0.4-0.5-0.5C194.4,73.6,194.2,73.5,194,73.5z"/>
	<path class="st7" d="M202.8,68.5c0,0.2,0,0.5-0.1,0.7s-0.2,0.4-0.4,0.6c-0.2,0.2-0.4,0.3-0.6,0.4s-0.5,0.1-0.7,0.1s-0.5,0-0.7-0.1
		s-0.4-0.2-0.6-0.4c-0.2-0.2-0.3-0.4-0.4-0.6s-0.1-0.5-0.1-0.7s0-0.5,0.1-0.7s0.2-0.4,0.4-0.6c0.2-0.2,0.4-0.3,0.6-0.4
		s0.5-0.1,0.7-0.1s0.5,0,0.7,0.1s0.4,0.2,0.6,0.4c0.2,0.2,0.3,0.4,0.4,0.6C202.7,68,202.8,68.3,202.8,68.5z M202.4,71.4v10.4h-3.1
		V71.4H202.4z"/>
	<path class="st7" d="M208,71.2c0.6,0,1.3,0.1,1.9,0.3c1.1,0.4,2,1.3,2.4,2.4c0.2,0.6,0.4,1.3,0.4,2c0,0.2,0,0.4,0,0.6
		c0,0.1-0.1,0.2-0.1,0.4c-0.1,0.1-0.1,0.1-0.2,0.2c-0.1,0-0.2,0-0.3,0h-6c0,0.7,0.3,1.4,0.8,1.9c0.5,0.4,1,0.6,1.6,0.6
		c0.3,0,0.6,0,0.9-0.1c0.2-0.1,0.5-0.2,0.7-0.3l0.6-0.3c0.2-0.1,0.4-0.1,0.5-0.1c0.2,0,0.4,0.1,0.6,0.3l0.9,1.1
		c-0.3,0.3-0.6,0.7-1,0.9c-0.4,0.2-0.7,0.4-1.1,0.5c-0.4,0.2-0.8,0.3-1.2,0.3c-0.4,0-0.7,0.1-1.1,0.1c-0.7,0-1.4-0.1-2-0.3
		c-0.6-0.2-1.2-0.6-1.7-1.1s-0.9-1.1-1.1-1.7c-0.3-0.8-0.4-1.6-0.4-2.4c0-0.7,0.1-1.4,0.4-2c0.2-0.6,0.6-1.2,1-1.6
		c0.5-0.5,1-0.9,1.6-1.1C206.5,71.3,207.3,71.2,208,71.2z M208.1,73.3c-0.5,0-1,0.2-1.4,0.5c-0.4,0.4-0.6,0.9-0.7,1.5h3.9
		c0-0.2,0-0.5-0.1-0.7s-0.2-0.4-0.3-0.6c-0.2-0.2-0.3-0.3-0.6-0.4C208.7,73.4,208.4,73.3,208.1,73.3z"/>
	<path class="st7" d="M213.1,81.7V71.4h1.9c0.2,0,0.3,0,0.5,0.1c0.1,0.1,0.2,0.2,0.3,0.4l0.2,0.6c0.2-0.2,0.4-0.4,0.6-0.5
		c0.2-0.2,0.4-0.3,0.7-0.4c0.3-0.1,0.5-0.2,0.8-0.3c0.3-0.1,0.6-0.1,0.9-0.1c0.5,0,1,0.1,1.5,0.3c0.4,0.2,0.8,0.5,1.1,0.8
		c0.3,0.4,0.5,0.8,0.7,1.3s0.2,1,0.2,1.6v6.6h-3.1v-6.6c0-0.4-0.1-0.8-0.4-1.2c-0.3-0.3-0.6-0.4-1-0.4c-0.3,0-0.7,0.1-1,0.2
		c-0.3,0.2-0.6,0.4-0.9,0.6v7.4h-3L213.1,81.7L213.1,81.7z"/>
	<path class="st7" d="M227,81.9c-0.4,0-0.9-0.1-1.3-0.2s-0.7-0.3-1-0.6c-0.3-0.3-0.5-0.6-0.6-1s-0.2-0.8-0.2-1.3v-5.3H223
		c-0.2,0-0.3,0-0.4-0.2c-0.1-0.1-0.2-0.3-0.2-0.5v-1.2l1.6-0.3l0.6-2.5c0.1-0.3,0.4-0.5,0.7-0.5h1.6v3h2.5v2.1h-2.5v5.2
		c0,0.2,0.1,0.4,0.2,0.6s0.3,0.2,0.5,0.2c0.1,0,0.2,0,0.3,0c0.1,0,0.1,0,0.2-0.1l0.2-0.1c0.1,0,0.1,0,0.2,0s0.2,0,0.2,0.1
		c0.1,0.1,0.1,0.1,0.2,0.2l0.9,1.5c-0.4,0.3-0.9,0.5-1.4,0.7C228.1,81.9,227.6,81.9,227,81.9z"/>
	<path class="st7" d="M234.5,71.2c0.6,0,1.3,0.1,1.9,0.3c1.1,0.4,2,1.3,2.4,2.4c0.2,0.6,0.4,1.3,0.4,2c0,0.2,0,0.4,0,0.6
		c0,0.1-0.1,0.2-0.1,0.4c-0.1,0.1-0.1,0.1-0.2,0.2c-0.1,0-0.2,0-0.3,0h-6c0,0.7,0.3,1.4,0.8,1.9c0.5,0.4,1,0.6,1.6,0.6
		c0.3,0,0.6,0,0.9-0.1c0.2-0.1,0.5-0.2,0.7-0.3l0.6-0.3c0.2-0.1,0.4-0.1,0.5-0.1c0.2,0,0.4,0.1,0.6,0.3l0.9,1.1
		c-0.3,0.3-0.6,0.7-1,0.9c-0.4,0.2-0.7,0.4-1.1,0.5s-0.8,0.2-1.2,0.3c-0.4,0-0.7,0.1-1.1,0.1c-0.7,0-1.4-0.1-2-0.3
		c-0.6-0.2-1.2-0.6-1.7-1.1s-0.9-1.1-1.1-1.7c-0.3-0.8-0.4-1.6-0.4-2.4c0-0.7,0.1-1.4,0.4-2c0.2-0.6,0.6-1.2,1-1.6
		c0.5-0.5,1-0.9,1.6-1.1C233.1,71.3,233.8,71.2,234.5,71.2z M234.6,73.3c-0.5,0-1,0.2-1.4,0.5c-0.4,0.4-0.6,0.9-0.7,1.5h3.9
		c0-0.2,0-0.5-0.1-0.7s-0.2-0.4-0.3-0.6c-0.2-0.2-0.3-0.3-0.6-0.4C235.2,73.4,234.9,73.3,234.6,73.3z"/>
	<path class="st7" d="M249.5,81.7c-0.2,0-0.3,0-0.5-0.1c-0.1-0.1-0.2-0.2-0.3-0.4l-0.2-0.8c-0.2,0.2-0.4,0.4-0.6,0.6
		s-0.5,0.3-0.7,0.5c-0.3,0.1-0.6,0.2-0.9,0.3c-0.3,0.1-0.7,0.1-1,0.1c-0.5,0-1-0.1-1.5-0.4c-0.5-0.2-0.9-0.6-1.2-1
		c-0.4-0.5-0.6-1.1-0.8-1.7c-0.2-0.7-0.3-1.5-0.3-2.3c0-0.7,0.1-1.5,0.3-2.2c0.2-0.6,0.5-1.2,0.9-1.7s0.9-0.9,1.4-1.1
		c0.6-0.3,1.2-0.4,1.8-0.4c0.5,0,0.9,0.1,1.4,0.2c0.4,0.2,0.7,0.4,1,0.6v-5.3h3.1v15L249.5,81.7z M246.3,79.5c0.2,0,0.4,0,0.6-0.1
		c0.2,0,0.3-0.1,0.5-0.2s0.3-0.2,0.4-0.3c0.1-0.1,0.3-0.3,0.4-0.4v-4.4c-0.2-0.2-0.5-0.4-0.8-0.5s-0.6-0.2-0.9-0.2s-0.5,0.1-0.8,0.2
		s-0.5,0.3-0.6,0.6c-0.2,0.3-0.3,0.6-0.4,1c-0.1,0.5-0.2,1-0.1,1.4c0,0.5,0,0.9,0.1,1.4c0.1,0.3,0.2,0.6,0.3,0.9
		c0.1,0.2,0.3,0.4,0.5,0.5C245.9,79.5,246.1,79.5,246.3,79.5z"/>
	<path class="st7" d="M256.9,71.2c0.6,0,1.3,0.1,1.9,0.3c1.1,0.4,2,1.3,2.4,2.4c0.2,0.6,0.4,1.3,0.4,2c0,0.2,0,0.4,0,0.6
		c0,0.1-0.1,0.2-0.1,0.4c-0.1,0.1-0.1,0.1-0.2,0.2c-0.1,0-0.2,0-0.3,0h-6c0,0.7,0.3,1.4,0.8,1.9c0.5,0.4,1,0.6,1.6,0.6
		c0.3,0,0.6,0,0.9-0.1c0.2-0.1,0.5-0.2,0.7-0.3l0.6-0.3c0.2-0.1,0.4-0.1,0.5-0.1c0.2,0,0.4,0.1,0.6,0.3l0.9,1.1
		c-0.3,0.3-0.6,0.7-1,0.9c-0.4,0.2-0.7,0.4-1.1,0.5s-0.8,0.2-1.2,0.3c-0.4,0-0.7,0.1-1.1,0.1c-0.7,0-1.4-0.1-2-0.3
		c-0.6-0.2-1.2-0.6-1.7-1.1s-0.9-1.1-1.2-1.7c-0.3-0.8-0.4-1.6-0.4-2.4c0-0.7,0.1-1.4,0.4-2c0.2-0.6,0.6-1.2,1-1.6
		c0.5-0.5,1-0.9,1.6-1.1C255.5,71.3,256.2,71.2,256.9,71.2z M257,73.3c-0.5,0-1,0.2-1.4,0.5c-0.4,0.4-0.6,0.9-0.7,1.5h3.9
		c0-0.2,0-0.5-0.1-0.7s-0.2-0.4-0.3-0.6c-0.2-0.2-0.3-0.3-0.6-0.4C257.6,73.4,257.3,73.3,257,73.3z"/>
	<path class="st7" d="M272.7,70.1c-0.1,0.1-0.2,0.3-0.3,0.3c-0.1,0.1-0.3,0.1-0.4,0.1c-0.2,0-0.3-0.1-0.5-0.1l-0.6-0.3
		c-0.2-0.1-0.5-0.2-0.8-0.3c-0.3-0.1-0.7-0.2-1-0.2c-0.5,0-1,0.1-1.4,0.4c-0.3,0.3-0.5,0.7-0.5,1.1c0,0.3,0.1,0.5,0.3,0.7
		c0.2,0.2,0.5,0.4,0.7,0.5c0.3,0.2,0.7,0.3,1,0.4l1.2,0.4c0.4,0.1,0.8,0.3,1.2,0.5c0.4,0.2,0.7,0.4,1,0.7c0.3,0.3,0.6,0.7,0.7,1.1
		c0.2,0.5,0.3,1,0.3,1.6s-0.1,1.3-0.4,1.9c-0.5,1.2-1.4,2.1-2.7,2.6c-0.7,0.3-1.5,0.4-2.2,0.4c-0.5,0-0.9,0-1.4-0.1
		s-0.9-0.2-1.4-0.4c-0.4-0.2-0.8-0.4-1.2-0.6c-0.4-0.2-0.7-0.5-1-0.8l1-1.6c0.1-0.1,0.2-0.2,0.3-0.3c0.1-0.1,0.3-0.1,0.4-0.1
		c0.2,0,0.4,0.1,0.6,0.2l0.7,0.4c0.3,0.2,0.6,0.3,0.9,0.4c0.4,0.1,0.8,0.2,1.2,0.2c0.5,0.1,1.1-0.1,1.5-0.4s0.6-0.8,0.5-1.3
		c0-0.3-0.1-0.6-0.3-0.8c-0.2-0.2-0.5-0.4-0.7-0.5c-0.3-0.1-0.7-0.3-1-0.4l-1.2-0.4c-0.4-0.1-0.8-0.3-1.2-0.5
		c-0.4-0.2-0.7-0.4-1-0.8c-0.3-0.3-0.6-0.7-0.7-1.2c-0.2-0.5-0.3-1.1-0.3-1.7s0.1-1.1,0.3-1.6c0.2-0.5,0.6-1,1-1.4
		c0.5-0.4,1-0.8,1.6-1c0.7-0.3,1.4-0.4,2.1-0.4c0.4,0,0.9,0,1.3,0.1s0.8,0.2,1.2,0.3c0.4,0.1,0.7,0.3,1.1,0.5
		c0.3,0.2,0.6,0.4,0.9,0.7L272.7,70.1z"/>
	<path class="st7" d="M277.8,71.2c0.4,0,0.8,0,1.2,0.1c0.4,0.1,0.7,0.2,1.1,0.4h3.2v1.2c0,0.2,0,0.3-0.1,0.4s-0.3,0.2-0.5,0.2
		l-0.8,0.2c0.1,0.3,0.1,0.6,0.1,0.9c0,0.5-0.1,1-0.3,1.4c-0.2,0.4-0.5,0.7-0.9,1s-0.8,0.5-1.3,0.7s-1.1,0.2-1.6,0.2
		c-0.3,0-0.6,0-0.9-0.1c-0.2,0.1-0.3,0.3-0.3,0.5s0.1,0.3,0.3,0.4c0.2,0.1,0.5,0.1,0.7,0.2c0.3,0,0.6,0,1,0s0.8,0,1.2,0.1
		c0.4,0,0.8,0.1,1.2,0.2c0.4,0.1,0.7,0.2,1,0.4c0.3,0.2,0.5,0.5,0.7,0.8c0.2,0.4,0.3,0.8,0.3,1.2c0,0.5-0.1,1-0.3,1.4
		c-0.2,0.5-0.6,0.9-1,1.2c-0.5,0.4-1,0.7-1.6,0.8c-0.7,0.2-1.5,0.3-2.2,0.3s-1.4-0.1-2.1-0.2c-0.5-0.1-1-0.3-1.5-0.6
		c-0.4-0.2-0.7-0.5-0.9-0.9c-0.2-0.3-0.3-0.6-0.3-1s0.1-0.8,0.4-1.2c0.3-0.3,0.7-0.6,1.1-0.8c-0.2-0.1-0.4-0.4-0.6-0.6
		c-0.1-0.3-0.2-0.6-0.2-0.9c0-0.2,0-0.3,0.1-0.5s0.1-0.3,0.3-0.5c0.1-0.2,0.3-0.3,0.4-0.5c0.2-0.2,0.4-0.3,0.6-0.4
		c-0.5-0.3-1-0.6-1.3-1.1c-0.6-0.9-0.6-2.1-0.1-3.1c0.2-0.4,0.5-0.8,0.9-1.1c0.4-0.3,0.9-0.5,1.4-0.7
		C276.6,71.2,277.2,71.2,277.8,71.2z M280,82.1c0-0.2-0.1-0.3-0.2-0.4s-0.3-0.2-0.4-0.2c-0.2-0.1-0.4-0.1-0.6-0.1
		c-0.3,0-0.5,0-0.8,0h-0.8c-0.3,0-0.6,0-0.9-0.1c-0.2,0.1-0.4,0.3-0.5,0.4c-0.1,0.2-0.2,0.4-0.2,0.6c0,0.1,0,0.3,0.1,0.4
		s0.2,0.2,0.3,0.3c0.2,0.1,0.4,0.2,0.6,0.2c0.3,0.1,0.7,0.1,1,0.1c0.4,0,0.7,0,1.1-0.1c0.2,0,0.5-0.1,0.7-0.2
		c0.1-0.1,0.3-0.2,0.4-0.3C280,82.4,280,82.3,280,82.1z M277.8,76c0.4,0,0.8-0.1,1.1-0.4c0.2-0.3,0.4-0.6,0.4-1s-0.1-0.7-0.4-1
		c-0.7-0.5-1.6-0.5-2.2,0c-0.2,0.3-0.4,0.6-0.3,1c0,0.2,0,0.4,0.1,0.5c0.1,0.2,0.1,0.3,0.3,0.4c0.1,0.1,0.3,0.2,0.5,0.3
		C277.3,76,277.5,76,277.8,76z"/>
	<path class="st7" d="M287.8,71.2c0.7,0,1.5,0.1,2.1,0.4c0.6,0.2,1.2,0.6,1.7,1.1s0.8,1,1.1,1.7c0.3,0.7,0.4,1.5,0.4,2.2
		c0,0.8-0.1,1.5-0.4,2.2c-0.2,0.6-0.6,1.2-1.1,1.7s-1,0.8-1.7,1.1c-1.4,0.5-2.9,0.5-4.3,0c-0.6-0.2-1.2-0.6-1.7-1.1
		s-0.9-1.1-1.1-1.7c-0.3-0.7-0.4-1.5-0.4-2.2c0-0.8,0.1-1.5,0.4-2.2c0.2-0.6,0.6-1.2,1.1-1.7s1.1-0.8,1.7-1.1
		C286.4,71.3,287.1,71.2,287.8,71.2z M287.8,79.6c0.6,0,1.2-0.2,1.6-0.8c0.7-1.5,0.7-3.1,0-4.6c-0.4-0.5-1-0.8-1.6-0.8
		c-0.6-0.1-1.2,0.2-1.6,0.8c-0.7,1.5-0.7,3.1,0,4.6C286.6,79.4,287.2,79.7,287.8,79.6z"/>
	<path class="st7" d="M292.9,80.2c0-0.2,0-0.5,0.1-0.7s0.2-0.4,0.4-0.5c0.2-0.2,0.4-0.3,0.6-0.4s0.5-0.1,0.7-0.1s0.5,0,0.7,0.1
		s0.4,0.2,0.6,0.4c0.2,0.2,0.3,0.3,0.4,0.5s0.1,0.4,0.1,0.7c0,0.2,0,0.5-0.1,0.7s-0.2,0.4-0.4,0.6c-0.2,0.2-0.4,0.3-0.6,0.3
		c-0.2,0.1-0.5,0.1-0.7,0.1s-0.5,0-0.7-0.1s-0.4-0.2-0.6-0.3C293.1,81.1,292.9,80.6,292.9,80.2z"/>
	<path class="st7" d="M306.7,81.7c-0.2,0-0.3,0-0.5-0.1c-0.1-0.1-0.2-0.2-0.3-0.4l-0.2-0.8c-0.2,0.2-0.4,0.4-0.6,0.6
		c-0.5,0.4-1,0.6-1.6,0.8c-0.3,0.1-0.7,0.1-1,0.1c-0.5,0-1-0.1-1.5-0.4c-0.5-0.2-0.9-0.6-1.2-1c-0.4-0.5-0.6-1.1-0.8-1.7
		c-0.2-0.7-0.3-1.5-0.3-2.3c0-0.7,0.1-1.5,0.3-2.2c0.2-0.6,0.5-1.2,0.9-1.7s0.9-0.9,1.4-1.1c0.6-0.3,1.2-0.4,1.8-0.4
		c0.5,0,0.9,0.1,1.4,0.2c0.4,0.2,0.7,0.4,1,0.6v-5.3h3.1v15L306.7,81.7z M303.6,79.5c0.2,0,0.4,0,0.6-0.1c0.2,0,0.3-0.1,0.5-0.2
		s0.3-0.2,0.4-0.3c0.1-0.1,0.3-0.3,0.4-0.4v-4.4c-0.2-0.2-0.5-0.4-0.8-0.5s-0.6-0.2-0.9-0.2s-0.5,0.1-0.8,0.2s-0.5,0.3-0.6,0.6
		c-0.2,0.3-0.3,0.6-0.4,1c-0.1,0.5-0.2,1-0.1,1.4c0,0.5,0,0.9,0.1,1.4c0.1,0.3,0.2,0.6,0.3,0.9c0.1,0.2,0.3,0.4,0.5,0.5
		C303.1,79.5,303.4,79.5,303.6,79.5L303.6,79.5z"/>
	<path class="st7" d="M314.2,71.2c0.6,0,1.3,0.1,1.9,0.3c1.1,0.4,2,1.3,2.4,2.4c0.2,0.6,0.4,1.3,0.3,2c0,0.2,0,0.4,0,0.6
		c0,0.1,0,0.2-0.1,0.4c-0.1,0.1-0.1,0.1-0.2,0.2c-0.1,0-0.2,0-0.4,0h-6c0,0.7,0.3,1.4,0.8,1.9c0.5,0.4,1,0.6,1.6,0.6
		c0.3,0,0.6,0,0.9-0.1c0.2-0.1,0.5-0.2,0.7-0.3l0.6-0.3c0.2-0.1,0.4-0.1,0.5-0.1c0.2,0,0.4,0.1,0.6,0.3l0.9,1.1
		c-0.3,0.3-0.6,0.7-1,0.9c-0.4,0.2-0.7,0.4-1.1,0.5s-0.8,0.2-1.2,0.3c-0.4,0-0.7,0.1-1.1,0.1c-0.7,0-1.4-0.1-2-0.3
		c-0.6-0.2-1.2-0.6-1.7-1.1s-0.9-1.1-1.1-1.7c-0.3-0.8-0.4-1.6-0.4-2.4c0-0.7,0.1-1.4,0.4-2c0.2-0.6,0.6-1.2,1-1.6
		c0.5-0.5,1-0.9,1.6-1.1C312.7,71.3,313.4,71.2,314.2,71.2z M314.2,73.3c-0.5,0-1,0.2-1.4,0.5c-0.4,0.4-0.6,0.9-0.6,1.5h3.9
		c0-0.2,0-0.5-0.1-0.7s-0.2-0.4-0.3-0.6c-0.2-0.2-0.3-0.3-0.6-0.4C314.8,73.4,314.5,73.3,314.2,73.3L314.2,73.3z"/>
	<path class="st7" d="M322.5,66.8v15h-3.1v-15H322.5z"/>
	<path class="st7" d="M335.6,67.2v2.6h-6v3.4h4.6v2.5h-4.6v3.5h6v2.6h-9.3V67.2H335.6z"/>
	<path class="st7" d="M342.5,73.7c-0.1,0.1-0.1,0.2-0.3,0.3c-0.1,0.1-0.2,0.1-0.4,0.1c-0.2,0-0.3,0-0.4-0.1l-0.5-0.2
		c-0.2-0.1-0.4-0.1-0.6-0.2s-0.5-0.1-0.7-0.1c-0.3,0-0.6,0.1-0.9,0.2c-0.2,0.1-0.3,0.4-0.3,0.6s0.1,0.4,0.2,0.5
		c0.2,0.1,0.3,0.2,0.5,0.3c0.3,0.1,0.5,0.2,0.8,0.3l0.9,0.3c0.3,0.1,0.6,0.2,0.9,0.4c0.3,0.1,0.5,0.3,0.8,0.5
		c0.2,0.2,0.4,0.5,0.5,0.8s0.2,0.7,0.2,1.1c0,0.5-0.1,1-0.3,1.4c-0.2,0.4-0.5,0.8-0.8,1.1c-0.4,0.3-0.9,0.6-1.4,0.7
		c-0.6,0.2-1.2,0.3-1.9,0.3c-0.4,0-0.7,0-1.1-0.1c-0.3-0.1-0.7-0.2-1-0.3c-0.3-0.1-0.6-0.2-0.9-0.4c-0.3-0.1-0.5-0.3-0.7-0.5
		l0.7-1.1c0.1-0.1,0.2-0.2,0.3-0.3c0.1-0.1,0.3-0.1,0.5-0.1s0.3,0,0.5,0.1l0.5,0.3c0.2,0.1,0.4,0.2,0.6,0.3c0.3,0.1,0.6,0.1,0.8,0.1
		c0.2,0,0.4,0,0.6-0.1c0.1,0,0.3-0.1,0.4-0.2s0.2-0.2,0.2-0.3c0-0.1,0.1-0.2,0.1-0.3c0-0.2-0.1-0.4-0.2-0.5
		c-0.2-0.1-0.3-0.3-0.5-0.3c-0.2-0.1-0.5-0.2-0.8-0.3c-0.3-0.1-0.6-0.2-0.9-0.3c-0.3-0.1-0.6-0.2-0.9-0.4c-0.3-0.1-0.6-0.3-0.8-0.6
		c-0.2-0.2-0.4-0.5-0.5-0.8c-0.2-0.4-0.2-0.8-0.2-1.2c0-0.4,0.1-0.9,0.3-1.3c0.2-0.4,0.4-0.7,0.8-1s0.8-0.6,1.3-0.7
		c0.9-0.3,1.9-0.3,2.9-0.2c0.3,0.1,0.7,0.1,1,0.3c0.3,0.1,0.6,0.3,0.8,0.4c0.2,0.1,0.5,0.3,0.7,0.5L342.5,73.7z"/>
	<path class="st7" d="M347.3,81.9c-0.4,0-0.9-0.1-1.3-0.2c-0.7-0.3-1.3-0.8-1.5-1.6c-0.1-0.4-0.2-0.8-0.2-1.2v-5.3h-0.9
		c-0.2,0-0.3-0.1-0.4-0.2s-0.2-0.3-0.2-0.5v-1.2l1.6-0.3l0.6-2.5c0.1-0.3,0.4-0.5,0.7-0.5h1.6v3h2.5v2.1h-2.5v5.2
		c0,0.2,0.1,0.4,0.2,0.6s0.3,0.2,0.5,0.2c0.1,0,0.2,0,0.3,0c0.1,0,0.1,0,0.2-0.1l0.2-0.1c0.1,0,0.1,0,0.2,0s0.2,0,0.2,0.1
		c0.1,0.1,0.1,0.1,0.2,0.2l0.9,1.5c-0.4,0.3-0.9,0.5-1.4,0.7C348.3,81.9,347.8,81.9,347.3,81.9z"/>
	<path class="st7" d="M354.8,71.2c0.6,0,1.3,0.1,1.9,0.3c1.1,0.4,2,1.3,2.4,2.4c0.2,0.6,0.4,1.3,0.3,2c0,0.2,0,0.4,0,0.6
		c0,0.1,0,0.2-0.1,0.4c0,0.1-0.1,0.1-0.2,0.2c-0.1,0-0.2,0-0.4,0h-6c0,0.7,0.3,1.4,0.8,1.9c0.5,0.4,1,0.6,1.6,0.6
		c0.3,0,0.6,0,0.9-0.1c0.2-0.1,0.5-0.2,0.7-0.3l0.6-0.3c0.2-0.1,0.3-0.1,0.5-0.1s0.4,0.1,0.6,0.3l0.9,1.1c-0.3,0.3-0.6,0.7-1,0.9
		c-0.4,0.2-0.7,0.4-1.1,0.5s-0.8,0.2-1.2,0.3c-0.4,0-0.7,0.1-1.1,0.1c-0.7,0-1.4-0.1-2-0.3c-0.6-0.2-1.2-0.6-1.7-1
		c-0.5-0.5-0.9-1.1-1.1-1.7c-0.3-0.8-0.4-1.6-0.4-2.4c0-0.7,0.1-1.4,0.4-2c0.2-0.6,0.6-1.2,1-1.6c0.5-0.5,1-0.9,1.6-1.1
		C353.3,71.3,354.1,71.2,354.8,71.2z M354.8,73.3c-0.5,0-1,0.2-1.4,0.5c-0.4,0.4-0.6,0.9-0.7,1.5h3.9c0-0.2,0-0.5-0.1-0.7
		s-0.2-0.4-0.3-0.6c-0.2-0.2-0.3-0.3-0.6-0.4C355.4,73.4,355.1,73.3,354.8,73.3z"/>
	<path class="st7" d="M359.9,81.7V71.4h1.8c0.1,0,0.3,0,0.4,0s0.2,0.1,0.3,0.1c0.1,0.1,0.1,0.1,0.2,0.2c0,0.1,0.1,0.2,0.1,0.3l0.2,1
		c0.3-0.5,0.8-1,1.3-1.4c0.4-0.3,1-0.5,1.5-0.5c0.4,0,0.8,0.1,1.1,0.3l-0.4,2.3c0,0.1-0.1,0.2-0.2,0.3c-0.1,0.1-0.2,0.1-0.3,0.1
		c-0.1,0-0.3,0-0.4,0c-0.2,0-0.4,0-0.6,0c-0.8,0-1.6,0.5-1.9,1.3v6.3L359.9,81.7z"/>
	<path class="st7" d="M371.5,71.2c0.7,0,1.5,0.1,2.1,0.4c0.6,0.2,1.2,0.6,1.6,1.1c0.5,0.5,0.8,1,1.1,1.7c0.3,0.7,0.4,1.5,0.4,2.2
		c0,0.8-0.1,1.5-0.4,2.2c-0.2,0.6-0.6,1.2-1.1,1.7s-1,0.8-1.7,1.1c-0.7,0.3-1.4,0.4-2.1,0.4s-1.5-0.1-2.2-0.4
		c-0.6-0.2-1.2-0.6-1.7-1.1s-0.9-1.1-1.1-1.7c-0.3-0.7-0.4-1.5-0.4-2.2c0-0.8,0.1-1.5,0.4-2.2c0.2-0.6,0.6-1.2,1.1-1.7
		s1.1-0.8,1.7-1.1C370,71.3,370.7,71.2,371.5,71.2z M371.5,79.6c0.6,0,1.2-0.2,1.6-0.7c0.7-1.5,0.7-3.1,0-4.6
		c-0.4-0.5-1-0.8-1.6-0.8s-1.2,0.2-1.6,0.8c-0.7,1.5-0.7,3.1,0,4.6C370.2,79.4,370.8,79.7,371.5,79.6z"/>
</g>
<g class="st8">
	<path class="st9" d="M111.4,19.8h6.1c4.5,0,7.6,2.8,7.6,6.9s-3.1,6.9-7.6,6.9h-6.1V19.8z M117.3,31.5c3.1,0,5.1-1.9,5.1-4.8
		s-2-4.8-5.1-4.8H114v9.5L117.3,31.5L117.3,31.5z"/>
	<path class="st9" d="M127.2,19.9c0-0.8,0.7-1.5,1.6-1.5s1.6,0.6,1.6,1.4c0,0.9-0.7,1.5-1.6,1.5C127.8,21.3,127.2,20.7,127.2,19.9z
		 M127.5,23.1h2.5v10.6h-2.5V23.1z"/>
	<path class="st9" d="M139.3,23v2.4c-0.2,0-0.4-0.1-0.6-0.1c-1.9,0-3.1,1.1-3.1,3.3v5.1h-2.5V23.1h2.4v1.5
		C136.3,23.5,137.6,23,139.3,23z"/>
	<path class="st9" d="M151.2,29.2H143c0.3,1.5,1.6,2.5,3.4,2.5c1.2,0,2.1-0.4,2.9-1.1l1.3,1.5c-0.9,1.1-2.4,1.7-4.3,1.7
		c-3.5,0-5.8-2.3-5.8-5.4s2.3-5.4,5.5-5.4c3.1,0,5.3,2.2,5.3,5.5C151.3,28.6,151.3,28.9,151.2,29.2z M142.9,27.5h6
		c-0.2-1.5-1.4-2.6-3-2.6C144.3,24.9,143.2,26,142.9,27.5z"/>
	<path class="st9" d="M152.8,28.4c0-3.2,2.4-5.4,5.7-5.4c2.1,0,3.7,0.9,4.5,2.5l-1.9,1.1c-0.6-1-1.6-1.5-2.6-1.5
		c-1.8,0-3.2,1.3-3.2,3.3c0,2.1,1.4,3.3,3.2,3.3c1,0,2-0.5,2.6-1.5l1.9,1.1c-0.8,1.6-2.5,2.5-4.5,2.5
		C155.2,33.8,152.8,31.5,152.8,28.4z"/>
	<path class="st9" d="M164.1,28.4c0-3.2,2.4-5.4,5.7-5.4c2.1,0,3.7,0.9,4.5,2.5l-1.9,1.1c-0.6-1-1.6-1.5-2.6-1.5
		c-1.8,0-3.2,1.3-3.2,3.3c0,2.1,1.4,3.3,3.2,3.3c1,0,2-0.5,2.6-1.5l1.9,1.1c-0.8,1.6-2.5,2.5-4.5,2.5
		C166.5,33.8,164.1,31.5,164.1,28.4z"/>
	<path class="st9" d="M176.2,19.9c0-0.8,0.7-1.5,1.6-1.5s1.6,0.6,1.6,1.4c0,0.9-0.7,1.5-1.6,1.5C176.8,21.3,176.2,20.7,176.2,19.9z
		 M176.5,23.1h2.5v10.6h-2.5V23.1z"/>
	<path class="st9" d="M181.4,28.4c0-3.2,2.4-5.4,5.6-5.4c3.3,0,5.6,2.2,5.6,5.4s-2.4,5.4-5.6,5.4C183.7,33.8,181.4,31.5,181.4,28.4z
		 M190.1,28.4c0-2-1.3-3.3-3.1-3.3c-1.8,0-3.1,1.3-3.1,3.3s1.3,3.3,3.1,3.3C188.8,31.7,190.1,30.4,190.1,28.4z M188,18.9h2.9
		l-3.4,2.7h-2.1L188,18.9z"/>
	<path class="st9" d="M205.4,27.6v6.1h-2.5V28c0-1.9-0.9-2.8-2.5-2.8c-1.8,0-2.9,1.1-2.9,3.2v5.3H195V23.1h2.4v1.4
		c0.8-1,2.1-1.5,3.6-1.5C203.5,23,205.4,24.4,205.4,27.6z"/>
	<path class="st9" d="M223.7,26.6h2.4v5.5c-1.4,1.2-3.5,1.8-5.4,1.8c-4.3,0-7.5-3-7.5-7.1s3.2-7.1,7.5-7.1c2.3,0,4.3,0.8,5.6,2.3
		l-1.6,1.6c-1.1-1.1-2.3-1.6-3.8-1.6c-2.9,0-5,2-5,4.9c0,2.8,2.1,4.9,5,4.9c1,0,2-0.2,2.9-0.7v-4.5H223.7z"/>
	<path class="st9" d="M239.2,29.2h-8.3c0.3,1.5,1.6,2.5,3.4,2.5c1.2,0,2.1-0.4,2.9-1.1l1.3,1.5c-1,1.1-2.4,1.7-4.3,1.7
		c-3.5,0-5.8-2.3-5.8-5.4s2.3-5.4,5.5-5.4c3.1,0,5.3,2.2,5.3,5.5C239.2,28.6,239.2,28.9,239.2,29.2z M230.9,27.5h6
		c-0.2-1.5-1.4-2.6-3-2.6S231.1,26,230.9,27.5z"/>
	<path class="st9" d="M252,27.6v6.1h-2.5V28c0-1.9-0.9-2.8-2.5-2.8c-1.8,0-2.9,1.1-2.9,3.2v5.3h-2.5V23.1h2.4v1.4
		c0.8-1,2.1-1.5,3.6-1.5C250.1,23,252,24.4,252,27.6z"/>
	<path class="st9" d="M265.2,29.2h-8.3c0.3,1.5,1.6,2.5,3.4,2.5c1.2,0,2.1-0.4,2.9-1.1l1.3,1.5c-1,1.1-2.4,1.7-4.3,1.7
		c-3.5,0-5.8-2.3-5.8-5.4s2.3-5.4,5.5-5.4c3.1,0,5.3,2.2,5.3,5.5C265.2,28.6,265.2,28.9,265.2,29.2z M256.9,27.5h6
		c-0.2-1.5-1.4-2.6-3-2.6S257.1,26,256.9,27.5z"/>
	<path class="st9" d="M273.7,23v2.4c-0.2,0-0.4-0.1-0.6-0.1c-1.9,0-3.1,1.1-3.1,3.3v5.1h-2.5V23.1h2.4v1.5
		C270.7,23.5,271.9,23,273.7,23z"/>
	<path class="st9" d="M284.6,27.5v6.2h-2.3v-1.3c-0.6,0.9-1.7,1.4-3.3,1.4c-2.4,0-3.9-1.3-3.9-3.2c0-1.8,1.2-3.1,4.4-3.1h2.7v-0.2
		c0-1.4-0.9-2.3-2.6-2.3c-1.2,0-2.4,0.4-3.2,1l-1-1.8c1.1-0.9,2.8-1.3,4.5-1.3C282.8,23,284.6,24.4,284.6,27.5z M282.1,30.3v-1.2
		h-2.6c-1.7,0-2.1,0.6-2.1,1.4c0,0.9,0.8,1.5,2,1.5C280.7,32,281.7,31.4,282.1,30.3z"/>
	<path class="st9" d="M287.8,19h2.5v14.7h-2.5V19z"/>
</g>
<g class="st8">
	<path class="st9" d="M121.5,40.8v14.7h-2.4v-1.4c-0.8,1-2.1,1.5-3.5,1.5c-3.1,0-5.3-2.1-5.3-5.4c0-3.3,2.3-5.4,5.3-5.4
		c1.4,0,2.6,0.5,3.4,1.4v-5.4C119,40.8,121.5,40.8,121.5,40.8z M119.1,50.2c0-2-1.4-3.3-3.1-3.3c-1.8,0-3.1,1.3-3.1,3.3
		s1.4,3.3,3.1,3.3C117.7,53.5,119.1,52.2,119.1,50.2z"/>
	<path class="st9" d="M134.7,51h-8.3c0.3,1.5,1.6,2.5,3.4,2.5c1.2,0,2.1-0.4,2.9-1.1l1.3,1.5c-0.9,1.1-2.4,1.7-4.3,1.7
		c-3.5,0-5.8-2.3-5.8-5.4c0-3.1,2.3-5.4,5.5-5.4c3.1,0,5.3,2.2,5.3,5.5C134.7,50.4,134.7,50.7,134.7,51z M126.3,49.3h6
		c-0.2-1.5-1.4-2.6-3-2.6C127.8,46.7,126.6,47.8,126.3,49.3z"/>
	<path class="st9" d="M145.6,43.8H141v-2.2h11.8v2.2h-4.6v11.7h-2.6L145.6,43.8L145.6,43.8z"/>
	<path class="st9" d="M160.3,44.8v2.4c-0.2,0-0.4-0.1-0.6-0.1c-1.9,0-3.1,1.1-3.1,3.3v5.1h-2.5V44.9h2.4v1.5
		C157.3,45.3,158.6,44.8,160.3,44.8z"/>
	<path class="st9" d="M171.2,49.3v6.2h-2.3v-1.3c-0.6,0.9-1.7,1.4-3.3,1.4c-2.4,0-3.9-1.3-3.9-3.2c0-1.8,1.2-3.1,4.4-3.1h2.7v-0.2
		c0-1.4-0.9-2.3-2.6-2.3c-1.2,0-2.4,0.4-3.2,1l-1-1.8c1.1-0.9,2.8-1.3,4.5-1.3C169.4,44.8,171.2,46.2,171.2,49.3z M168.7,52.1v-1.2
		h-2.6c-1.7,0-2.1,0.6-2.1,1.4c0,0.9,0.8,1.5,2,1.5C167.3,53.8,168.3,53.2,168.7,52.1z"/>
	<path class="st9" d="M184.8,49.4v6.1h-2.5v-5.7c0-1.9-0.9-2.8-2.5-2.8c-1.8,0-2.9,1.1-2.9,3.2v5.3h-2.5V44.9h2.4v1.4
		c0.8-1,2.1-1.5,3.6-1.5C182.9,44.8,184.8,46.2,184.8,49.4z"/>
	<path class="st9" d="M186.7,54.4l1-1.9c0.9,0.6,2.4,1,3.7,1c1.6,0,2.2-0.4,2.2-1.2c0-2-6.5-0.1-6.5-4.3c0-2,1.8-3.3,4.7-3.3
		c1.4,0,3,0.3,4,0.9l-1,1.9c-1-0.6-2-0.8-3-0.8c-1.5,0-2.2,0.5-2.2,1.2c0,2.1,6.5,0.2,6.5,4.4c0,2-1.8,3.3-4.8,3.3
		C189.4,55.6,187.7,55.1,186.7,54.4z"/>
	<path class="st9" d="M209.3,50.2c0,3.3-2.3,5.4-5.4,5.4c-1.3,0-2.5-0.5-3.4-1.4v5.1H198V44.9h2.4v1.4c0.8-1,2.1-1.5,3.5-1.5
		C207.1,44.8,209.3,46.9,209.3,50.2z M206.8,50.2c0-2-1.3-3.3-3.1-3.3c-1.8,0-3.1,1.3-3.1,3.3s1.4,3.3,3.1,3.3
		C205.5,53.5,206.8,52.2,206.8,50.2z"/>
	<path class="st9" d="M210.8,50.2c0-3.2,2.4-5.4,5.6-5.4c3.3,0,5.6,2.2,5.6,5.4s-2.4,5.4-5.6,5.4C213.2,55.6,210.8,53.3,210.8,50.2z
		 M219.6,50.2c0-2-1.3-3.3-3.1-3.3c-1.8,0-3.1,1.3-3.1,3.3s1.3,3.3,3.1,3.3C218.3,53.5,219.6,52.2,219.6,50.2z"/>
	<path class="st9" d="M230.6,44.8v2.4c-0.2,0-0.4-0.1-0.6-0.1c-1.9,0-3.1,1.1-3.1,3.3v5.1h-2.5V44.9h2.4v1.5
		C227.5,45.3,228.8,44.8,230.6,44.8z"/>
	<path class="st9" d="M239.4,54.9c-0.6,0.5-1.5,0.7-2.4,0.7c-2.3,0-3.6-1.2-3.6-3.6v-5.1h-1.7v-2h1.7v-2.4h2.5V45h2.8v2h-2.8v5
		c0,1,0.5,1.6,1.5,1.6c0.5,0,1-0.1,1.4-0.4L239.4,54.9z"/>
	<path class="st9" d="M251,51h-8.3c0.3,1.5,1.6,2.5,3.4,2.5c1.2,0,2.1-0.4,2.9-1.1l1.3,1.5c-1,1.1-2.4,1.7-4.3,1.7
		c-3.5,0-5.8-2.3-5.8-5.4c0-3.1,2.3-5.4,5.5-5.4c3.1,0,5.3,2.2,5.3,5.5C251.1,50.4,251,50.7,251,51z M242.7,49.3h6
		c-0.2-1.5-1.4-2.6-3-2.6S242.9,47.8,242.7,49.3z"/>
</g>
<g class="st8">
	<path class="st9" d="M111.5,65l1.9,3.9l1.9-3.9h1.2v5.9h-0.9v-4.4l-1.9,3.8h-0.6l-1.9-3.8v4.4h-0.9V65H111.5z"/>
	<path class="st9" d="M119.1,65.1c0,0.3-0.2,0.6-0.6,0.6s-0.6-0.2-0.6-0.6c0-0.3,0.2-0.6,0.6-0.6S119.1,64.8,119.1,65.1z M119,66.4
		v4.5h-1v-4.5H119z"/>
	<path class="st9" d="M124.7,68.1v2.8h-1v-2.5c0-0.7-0.4-1.1-1.1-1.1c-0.7,0-1.2,0.5-1.3,1.2v2.4h-1v-4.5h1v0.9
		c0.3-0.6,0.9-0.9,1.6-0.9C124.1,66.4,124.7,67,124.7,68.1z"/>
	<path class="st9" d="M127,65.1c0,0.3-0.2,0.6-0.6,0.6s-0.6-0.2-0.6-0.6c0-0.3,0.2-0.6,0.6-0.6S127,64.8,127,65.1z M127,66.4v4.5h-1
		v-4.5H127z"/>
	<path class="st9" d="M129.7,67.1c-0.4,0-0.7,0.1-0.7,0.4c0,0.8,2.4,0.4,2.4,2c0,0.9-0.8,1.3-1.7,1.3c-0.7,0-1.4-0.2-1.8-0.6
		l0.3-0.7c0.4,0.3,1,0.6,1.5,0.6c0.4,0,0.7-0.1,0.7-0.5c0-0.9-2.4-0.4-2.3-2c0-0.9,0.8-1.3,1.6-1.3c0.6,0,1.2,0.2,1.6,0.5l-0.4,0.7
		C130.5,67.3,130,67.1,129.7,67.1z"/>
	<path class="st9" d="M134.9,70.6c-0.4,0.2-0.7,0.3-1.1,0.3c-0.7,0-1.3-0.4-1.3-1.3v-2.3h-0.6v-0.7h0.6v-1.2h1v1.2h1.3v0.7h-1.3v2.1
		c0,0.5,0.2,0.6,0.5,0.6c0.2,0,0.4-0.1,0.7-0.2L134.9,70.6z"/>
	<path class="st9" d="M139.7,69h-3.4c0.2,0.7,0.7,1.1,1.4,1.1c0.5,0,0.9-0.2,1.3-0.5l0.5,0.5c-0.4,0.5-1.1,0.8-1.8,0.8
		c-1.4,0-2.3-0.9-2.3-2.3s0.9-2.3,2.3-2.3C139.1,66.4,139.8,67.4,139.7,69z M138.8,68.3c0-0.7-0.5-1.2-1.2-1.2s-1.2,0.4-1.3,1.2
		H138.8z"/>
	<path class="st9" d="M143.2,66.4v0.9c-0.9,0-1.5,0.5-1.5,1.2v2.3h-1v-4.5h1v0.9C141.9,66.7,142.5,66.4,143.2,66.4z"/>
	<path class="st9" d="M145,65.1c0,0.3-0.2,0.6-0.6,0.6s-0.6-0.2-0.6-0.6c0-0.3,0.2-0.6,0.6-0.6S145,64.8,145,65.1z M144.9,66.4v4.5
		h-1v-4.5H144.9z"/>
	<path class="st9" d="M150.6,68.6c0,1.4-1,2.3-2.3,2.3c-1.4,0-2.3-0.9-2.3-2.3c0-1.3,0.9-2.3,2.3-2.3
		C149.7,66.4,150.6,67.3,150.6,68.6z M146.9,68.6c0,0.9,0.6,1.5,1.4,1.5c0.8,0,1.4-0.6,1.4-1.5s-0.6-1.5-1.4-1.5
		C147.5,67.2,146.9,67.8,146.9,68.6z"/>
	<path class="st9" d="M158.4,64.6v6.2h-1V70c-0.3,0.5-0.9,0.8-1.6,0.8c-1.3,0-2.1-0.9-2.1-2.3c0-1.3,0.9-2.3,2.1-2.3
		c0.7,0,1.3,0.3,1.6,0.8v-2.5h1V64.6z M157.5,68.6c0-0.9-0.6-1.5-1.4-1.5c-0.8,0-1.4,0.6-1.4,1.5c0,0.8,0.6,1.5,1.4,1.5
		S157.5,69.5,157.5,68.6z"/>
	<path class="st9" d="M163.8,69h-3.4c0.2,0.7,0.7,1.1,1.4,1.1c0.5,0,0.9-0.2,1.3-0.5l0.5,0.5c-0.4,0.5-1.1,0.8-1.8,0.8
		c-1.4,0-2.3-0.9-2.3-2.3s0.9-2.3,2.3-2.3C163.3,66.4,163.9,67.4,163.8,69z M163,68.3c0-0.7-0.5-1.2-1.2-1.2s-1.2,0.4-1.3,1.2H163z"
		/>
	<path class="st9" d="M173.2,67.9c0,1.7-1.4,3-3.1,3s-3.1-1.3-3.1-3s1.4-3,3.1-3S173.2,66.2,173.2,67.9z M167.9,67.9
		c0,1.2,1,2.1,2.1,2.1c1.2,0,2.1-0.9,2.1-2.1s-0.9-2.1-2.1-2.1C168.9,65.8,167.9,66.8,167.9,67.9z"/>
	<path class="st9" d="M178.9,68.6c0,1.3-0.8,2.3-2.1,2.3c-0.7,0-1.3-0.3-1.6-0.8v0.8h-1v-6.2h1v2.5c0.3-0.5,0.9-0.8,1.6-0.8
		C178,66.4,178.9,67.3,178.9,68.6z M177.9,68.6c0-0.8-0.6-1.4-1.4-1.4c-0.8,0-1.4,0.6-1.4,1.4c0,0.9,0.6,1.5,1.4,1.5
		C177.3,70.1,177.9,69.5,177.9,68.6z"/>
	<path class="st9" d="M182.4,66.4v0.9c-0.9,0-1.5,0.5-1.5,1.2v2.3h-1v-4.5h1v0.9C181.2,66.7,181.7,66.4,182.4,66.4z"/>
	<path class="st9" d="M185.7,70.9v-0.5c-0.3,0.4-0.8,0.6-1.5,0.6c-1,0-1.6-0.6-1.6-1.4s0.6-1.3,1.7-1.3h1.4V68
		c0-0.6-0.4-0.9-1.1-0.9c-0.4,0-0.9,0.2-1.3,0.5l-0.4-0.7c0.6-0.4,1.1-0.6,1.9-0.6c1.2,0,1.8,0.6,1.8,1.6v2.9L185.7,70.9L185.7,70.9
		z M185.7,69.3v-0.4h-1.2c-0.6,0-0.9,0.2-0.9,0.6s0.3,0.7,0.9,0.7C185.1,70.1,185.7,69.8,185.7,69.3z"/>
	<path class="st9" d="M189.2,67.1c-0.4,0-0.7,0.1-0.7,0.4c0,0.8,2.4,0.4,2.4,2c0,0.9-0.8,1.3-1.7,1.3c-0.7,0-1.4-0.2-1.8-0.6
		l0.3-0.7c0.4,0.3,1,0.6,1.5,0.6c0.4,0,0.7-0.1,0.7-0.5c0-0.9-2.4-0.4-2.3-2c0-0.9,0.8-1.3,1.6-1.3c0.6,0,1.2,0.2,1.6,0.5l-0.4,0.7
		C190.1,67.3,189.6,67.1,189.2,67.1z"/>
	<path class="st9" d="M192.6,70.4c0,0.2-0.1,0.3-0.2,0.4l-0.5,0.7h-0.5l0.3-0.7c-0.2-0.1-0.2-0.3-0.2-0.4c0-0.3,0.2-0.5,0.5-0.5
		C192.4,69.9,192.6,70.1,192.6,70.4z"/>
	<path class="st9" d="M198.2,65.9c-0.6,0-1,0.2-1,0.6c0,1.3,3.2,0.6,3.2,2.7c0,1.1-0.9,1.7-2.2,1.7c-0.9,0-1.8-0.4-2.4-0.9l0.4-0.9
		c0.6,0.6,1.4,0.9,2,0.9c0.7,0,1.1-0.3,1.1-0.7c0-1.3-3.2-0.6-3.2-2.7c0-1,0.9-1.6,2.1-1.6c0.8,0,1.5,0.2,2.1,0.6l-0.4,0.9
		C199.2,66,198.6,65.9,198.2,65.9z"/>
	<path class="st9" d="M205.4,69H202c0.2,0.7,0.7,1.1,1.4,1.1c0.5,0,0.9-0.2,1.3-0.5l0.5,0.5c-0.4,0.5-1.1,0.8-1.8,0.8
		c-1.4,0-2.3-0.9-2.3-2.3s0.9-2.3,2.3-2.3C204.9,66.4,205.5,67.4,205.4,69z M204.6,68.3c0-0.7-0.5-1.2-1.2-1.2s-1.2,0.4-1.3,1.2
		H204.6z"/>
	<path class="st9" d="M208.9,66.4v0.9c-0.9,0-1.5,0.5-1.5,1.2v2.3h-1v-4.5h1v0.9C207.7,66.7,208.2,66.4,208.9,66.4z"/>
	<path class="st9" d="M210.3,66.4l1.2,3.5l1.2-3.5h1l-1.7,4.5h-1l-1.7-4.5H210.3z"/>
	<path class="st9" d="M215.4,65.1c0,0.3-0.2,0.6-0.6,0.6s-0.6-0.2-0.6-0.6c0-0.3,0.2-0.6,0.6-0.6S215.4,64.8,215.4,65.1z
		 M215.3,66.4v4.5h-1v-4.5H215.3z"/>
	<path class="st9" d="M218.6,67.2c-0.8,0-1.3,0.6-1.3,1.4s0.6,1.4,1.3,1.4c0.6,0,1-0.2,1.3-0.5l0.5,0.5c-0.4,0.5-1.1,0.8-1.9,0.8
		c-1.3,0-2.3-0.9-2.3-2.3s0.9-2.3,2.3-2.3c0.8,0,1.4,0.3,1.8,0.7l-0.5,0.6C219.6,67.4,219.2,67.2,218.6,67.2z"/>
	<path class="st9" d="M222.6,65.1c0,0.3-0.2,0.6-0.6,0.6s-0.6-0.2-0.6-0.6c0-0.3,0.2-0.6,0.6-0.6S222.6,64.8,222.6,65.1z
		 M222.5,66.4v4.5h-1v-4.5H222.5z"/>
	<path class="st9" d="M228.1,68.6c0,1.4-1,2.3-2.3,2.3c-1.4,0-2.3-0.9-2.3-2.3c0-1.3,1-2.3,2.3-2.3
		C227.2,66.4,228.1,67.3,228.1,68.6z M224.4,68.6c0,0.9,0.6,1.5,1.4,1.5s1.4-0.6,1.4-1.5s-0.6-1.5-1.4-1.5
		C225,67.2,224.4,67.8,224.4,68.6z"/>
	<path class="st9" d="M230.4,67.1c-0.4,0-0.7,0.1-0.7,0.4c0,0.8,2.4,0.4,2.4,2c0,0.9-0.8,1.3-1.7,1.3c-0.7,0-1.4-0.2-1.8-0.6
		l0.3-0.7c0.4,0.3,1,0.6,1.5,0.6c0.4,0,0.7-0.1,0.7-0.5c0-0.9-2.4-0.4-2.3-2c0-0.9,0.8-1.3,1.6-1.3c0.6,0,1.2,0.2,1.6,0.5l-0.4,0.7
		C231.3,67.3,230.8,67.1,230.4,67.1z"/>
	<path class="st9" d="M240.4,67c0,1.3-0.8,2.1-2.3,2.1h-1.4v1.8h-1V65h2.3C239.5,65,240.4,65.7,240.4,67z M239.4,67
		c0-0.8-0.5-1.1-1.4-1.1h-1.3v2.3h1.3C238.9,68.2,239.4,67.8,239.4,67z"/>
	<path class="st9" d="M245.4,66.4v4.5h-1V70c-0.3,0.6-0.9,0.9-1.6,0.9c-1,0-1.6-0.7-1.6-1.7v-2.8h1v2.5c0,0.7,0.4,1.1,1,1.1
		c0.8,0,1.2-0.6,1.2-1.4v-2.2H245.4z M243.6,65.7h-0.9l0.9-1.2l1,0.4L243.6,65.7z"/>
	<path class="st9" d="M251.5,68.6c0,1.3-0.8,2.3-2.1,2.3c-0.7,0-1.3-0.3-1.6-0.8v0.8h-1v-6.2h1v2.5c0.3-0.5,0.9-0.8,1.6-0.8
		C250.6,66.4,251.5,67.3,251.5,68.6z M250.5,68.6c0-0.8-0.6-1.4-1.4-1.4s-1.4,0.6-1.4,1.4c0,0.9,0.6,1.5,1.4,1.5
		S250.5,69.5,250.5,68.6z"/>
	<path class="st9" d="M253.5,64.6v6.2h-1v-6.2H253.5z"/>
	<path class="st9" d="M256,65.1c0,0.3-0.2,0.6-0.6,0.6s-0.6-0.2-0.6-0.6c0-0.3,0.2-0.6,0.6-0.6S256,64.8,256,65.1z M256,66.4v4.5h-1
		v-4.5H256z"/>
	<path class="st9" d="M259.3,67.2c-0.8,0-1.3,0.6-1.3,1.4s0.6,1.4,1.3,1.4c0.6,0,1-0.2,1.3-0.5l0.5,0.5c-0.4,0.5-1.1,0.8-1.9,0.8
		c-1.3,0-2.3-0.9-2.3-2.3s0.9-2.3,2.3-2.3c0.8,0,1.4,0.3,1.8,0.7l-0.5,0.6C260.2,67.4,259.8,67.2,259.3,67.2z"/>
	<path class="st9" d="M266.2,68.6c0,1.4-1,2.3-2.3,2.3c-1.4,0-2.3-0.9-2.3-2.3c0-1.3,0.9-2.3,2.3-2.3
		C265.3,66.4,266.2,67.3,266.2,68.6z M262.5,68.6c0,0.9,0.6,1.5,1.4,1.5s1.4-0.6,1.4-1.5s-0.6-1.5-1.4-1.5
		C263.1,67.2,262.5,67.8,262.5,68.6z"/>
	<path class="st9" d="M268.5,67.1c-0.4,0-0.7,0.1-0.7,0.4c0,0.8,2.4,0.4,2.4,2c0,0.9-0.8,1.3-1.7,1.3c-0.7,0-1.4-0.2-1.8-0.6
		l0.3-0.7c0.4,0.3,1,0.6,1.5,0.6c0.4,0,0.7-0.1,0.7-0.5c0-0.9-2.4-0.4-2.3-2c0-0.9,0.8-1.3,1.6-1.3c0.6,0,1.2,0.2,1.6,0.5l-0.4,0.7
		C269.4,67.3,268.9,67.1,268.5,67.1z"/>
</g>
<g class="st8">
	<path class="st9" d="M110.6,82.6c-0.4,0-0.7-0.1-1-0.4l0.4-0.7c0.2,0.2,0.4,0.2,0.6,0.2c0.3,0,0.5-0.2,0.7-0.5l0.2-0.3l-1.8-4.4h1
		l1.3,3.4l1.2-3.4h1l-2,5.1C111.7,82.3,111.2,82.6,110.6,82.6z"/>
	<path class="st9" d="M121.1,79.6h-3l-0.6,1.3h-1l2.6-5.9h1l2.6,5.9h-1.1L121.1,79.6z M120.7,78.8l-1.1-2.6l-1.1,2.6H120.7z"/>
	<path class="st9" d="M127.3,76.5v4c0,1.3-0.9,2.1-2.3,2.1c-0.7,0-1.3-0.2-1.9-0.6l0.4-0.7c0.4,0.3,0.9,0.5,1.4,0.5
		c0.8,0,1.4-0.5,1.4-1.3V80c-0.3,0.5-0.8,0.8-1.5,0.8c-1.2,0-2-0.9-2-2.2c0-1.3,0.8-2.1,2-2.1c0.7,0,1.2,0.3,1.5,0.8v-0.7h1V76.5z
		 M126.3,78.6c0-0.8-0.5-1.4-1.3-1.4s-1.3,0.6-1.3,1.4s0.5,1.4,1.3,1.4S126.3,79.4,126.3,78.6z"/>
	<path class="st9" d="M132.7,76.5V81h-1v-0.9c-0.3,0.6-0.9,0.9-1.6,0.9c-1,0-1.6-0.7-1.6-1.7v-2.8h1V79c0,0.7,0.4,1.1,1,1.1
		c0.8,0,1.2-0.6,1.2-1.4v-2.2H132.7z"/>
	<path class="st9" d="M136.8,81v-0.5c-0.3,0.4-0.8,0.6-1.5,0.6c-1,0-1.6-0.6-1.6-1.4s0.6-1.3,1.7-1.3h1.4v-0.1
		c0-0.6-0.4-0.9-1.1-0.9c-0.4,0-0.9,0.2-1.3,0.5L134,77c0.6-0.4,1.1-0.6,1.9-0.6c1.2,0,1.8,0.6,1.8,1.6v2.9L136.8,81L136.8,81z
		 M136.8,79.4V79h-1.2c-0.6,0-0.9,0.2-0.9,0.6s0.3,0.7,0.9,0.7C136.2,80.2,136.7,79.9,136.8,79.4z"/>
</g>
<g>
	<path class="st10" d="M93.1,42.9H92c-1.1,0-1.6-0.8-1.1-1.7l1.2-2.4c0-0.1,0.1-0.2,0.1-0.3c-0.1-0.5-0.2-1-0.4-1.5
		c-0.1,0.3-0.1,0.5-0.2,0.7l-0.8,1.7c-0.5,1-0.9,0.9-0.9-0.2v-6.5c0-0.3,0-0.6,0.1-0.7c-0.7-1.6-1.5-3.2-2.4-4.7
		c-5.4,1.3-10.4,4-14.8,7.8h-0.1l0,0l0,0c0,0,0,0.1-0.1,0.1c-2.5,2.3-4.8,5-6.8,8l0,0l0,0c-6.8-10.6-17.8-17-29.4-17
		c-8.2,0-16.1,3.2-22.4,8.8h-0.1l0,0l0,0c0,0,0,0.1-0.1,0.1c-2.5,2.3-4.8,5-6.8,8l-1,1.5h2h56.8l0,0h1.9l0,0h26.4
		C93.2,44.2,93.1,43.5,93.1,42.9z M11.3,42.9c-1,0-1-1.2-0.6-1.6l0,0c0.3-0.4,1.1-0.2,1.6,0.4C12.8,42.4,12.3,42.9,11.3,42.9z
		 M14,40.5c0,1.1-0.5,1.3-1,0.6c-0.6-0.7-0.1-2.4,0.3-2.8l0,0c0.4-0.4,0.7,0.2,0.7,1.2V40.5z M48.4,30.7l2.2,1
		c0.9,0.5,1.3,1.6,0.7,2.6L50.9,35c-0.6,0.9-1.4,0.9-1.9-0.1l-1.5-3c-0.5-0.9-0.9-1.8-0.9-1.8C46.6,30,47.4,30.3,48.4,30.7z
		 M40.8,28.6c1,0.1,3.3,1.5,2.8,2.5L43.2,32l-0.4,0.9c-0.5,1-1.2,1-1.7,0l-1.3-2.8C39.3,29.1,39.8,28.4,40.8,28.6z M38.8,32.1
		c0-1.1,0.4-1.1,0.8-0.2l0.5,1l0.5,1c0.4,1,0.4,2.5,0,3.5l-0.4,0.8L39.8,39c-0.5,1-0.9,0.9-0.9-0.2L38.8,32.1L38.8,32.1z M25.2,30.4
		l2.3-0.8c1-0.3,1.5,0.2,1,1.2l-1.9,3.9c-0.5,1-1.3,1-1.7,0l-0.6-1.2c-0.5-0.9-0.9-1.9-0.9-2.1C23.4,31.3,24.2,30.8,25.2,30.4z
		 M18.6,42.9h-1c-1.1,0-1.9-0.9-1.9-1.9v-2.5c0-1.1,0.5-1.2,1.2-0.4l2.6,3.3C20,42.2,19.7,42.9,18.6,42.9z M21.7,40.9
		c0,1.1-0.5,1.2-1.2,0.4l-3.2-4.1c-0.7-0.8-0.5-2.1,0.4-2.7L20,33c0.9-0.5,1.7-0.1,1.7,0.9V40.9z M23.4,39.4v-3.7
		c0-1.1,0.4-1.2,0.9-0.2l0.1,0.3c0.5,0.9,0.5,2.5,0,3.5l-0.1,0.2l-0.1,0.2C23.8,40.5,23.4,40.4,23.4,39.4z M26.2,42.9h-0.7
		c-1.1,0-1.6-0.8-1.1-1.7l0.3-0.5l0.3-0.5c0.5-1,1.3-1,1.7,0l0.3,0.6l0.3,0.6C27.8,42.1,27.3,42.9,26.2,42.9z M29.4,41
		c0,1.1-0.1,1.9-0.1,1.9c-0.1,0-0.5-0.8-1-1.7l-1.1-2.1c-0.5-0.9-0.5-2.5,0-3.5l1.4-2.9c0.5-1,0.9-0.9,0.9,0.2V41H29.4z M31.1,39.2
		v-6.5c0-1.1,0.4-1.2,0.8-0.2l0.8,1.7c0.5,1,0.5,2.5,0,3.5l-0.8,1.7C31.5,40.4,31.1,40.3,31.1,39.2z M35,42.9h-1.9
		c-1.1,0-1.6-0.8-1.1-1.7l1.2-2.4c0.5-1,1.2-1,1.7,0l1.2,2.4C36.6,42.1,36.1,42.9,35,42.9z M37.1,39.3c0,1.1-0.4,1.2-0.8,0.2
		l-0.9-1.8c-0.5-1-0.5-2.5,0-3.5l0.8-1.7c0.5-1,0.9-0.9,0.9,0.2V39.3z M36.3,30.5l-0.7,1.4l-0.7,1.4c-0.5,1-1.2,1-1.7,0l-1.3-2.8
		c-0.5-1-0.8-1.8-0.8-1.8s0.9-0.1,1.9-0.3c0,0,1.3-0.2,2.9-0.2c0.2,0,0.3,0,0.5,0c0.1,0,0.2,0,0.3,0c0.2,0,0.4,0.1,0.4,0.3
		C37.1,28.7,36.8,29.6,36.3,30.5z M42.8,42.9h-2c-1.1,0-1.9,0-1.9-0.1c0,0,0.4-0.8,0.8-1.8l0.7-1.3l0.6-1.3c0.5-1,1.2-1,1.7,0l1,2.2
		l0.3,0.5C44.4,42.1,43.9,42.9,42.8,42.9z M44.9,39.2c0,1.1-0.4,1.1-0.8,0.2l-0.5-1l-0.5-1c-0.4-1-0.4-2.5,0-3.5l0.4-0.9l0.4-0.9
		c0.5-1,0.9-0.9,0.9,0.2L44.9,39.2L44.9,39.2z M46.6,40.1V34c0-1.1,0.4-1.2,0.9-0.2l0.2,0.3l0.8,1.6c0.5,0.9,0.4,2.5-0.1,3.4
		L48,39.7l-0.4,0.6C47,41.3,46.6,41.2,46.6,40.1z M50.2,42.9H49c-1.1,0-1.5-0.7-0.9-1.7l0.7-1.2c0.6-0.9,1.4-0.9,1.9,0.1l0.3,0.6
		l0.3,0.6C51.8,42.1,51.3,42.9,50.2,42.9z M52.6,39.9c0,1.1-0.4,1.2-0.9,0.2l-0.5-1c-0.5-0.9-0.4-2.5,0.1-3.4l0.1-0.2l0.1-0.2
		c0.6-0.9,1-0.8,1,0.3v4.3C52.5,39.9,52.6,39.9,52.6,39.9z M54.3,40.5v-4.7c0-1.1,0.7-1.4,1.6-0.8l1.8,1.5c0.8,0.7,0.8,1.9,0.1,2.6
		l-1,1l-1,1C54.9,41.9,54.3,41.6,54.3,40.5z M61.5,42.9h-4.4c-1.1,0-1.3-0.6-0.5-1.4l0.9-0.9l0.9-0.9c0.8-0.7,2-0.7,2.7,0.1
		C61.7,40.7,62.6,42.9,61.5,42.9z M70.1,42.9c-1,0-1-1.2-0.6-1.6l0,0c0.3-0.4,1.1-0.2,1.6,0.4C71.5,42.4,71.1,42.9,70.1,42.9z
		 M72.7,40.5c0,1.1-0.5,1.3-1,0.6c-0.6-0.7-0.1-2.4,0.3-2.8l0,0c0.4-0.4,0.7,0.2,0.7,1.2V40.5z M84,30.4l2.3-0.8
		c1-0.3,1.5,0.2,1,1.2l-0.9,1.9l-0.9,1.9c-0.5,1-1.3,1-1.7,0L83.5,34l-0.3-0.6c-0.5-0.9-0.9-1.9-0.9-2.1C82.2,31.3,83,30.8,84,30.4z
		 M77.4,42.9h-1c-1.1,0-1.9-0.9-1.9-1.9v-2.5c0-1.1,0.5-1.2,1.2-0.4l2.1,2.8l0.4,0.6C78.8,42.2,78.5,42.9,77.4,42.9z M80.5,40.9
		c0,1.1-0.5,1.2-1.2,0.4l-1.6-2.1l-1.6-2.1c-0.7-0.8-0.5-2.1,0.4-2.7l2.3-1.6c0.9-0.5,1.7-0.1,1.7,0.9L80.5,40.9L80.5,40.9z
		 M82.2,39.4v-3.7c0-1.1,0.4-1.2,0.9-0.2l0.1,0.3c0.5,0.9,0.5,2.5,0,3.5l-0.1,0.2L83,39.7C82.6,40.5,82.2,40.4,82.2,39.4z M85,42.9
		h-0.7c-1.1,0-1.6-0.8-1.1-1.7l0.3-0.5l0.3-0.5c0.5-1,1.3-1,1.7,0l0.3,0.6l0.3,0.6C86.5,42.1,86.1,42.9,85,42.9z M88.2,41
		c0,1.1-0.1,1.9-0.1,1.9s-0.5-0.8-1-1.7l-0.5-1l-0.5-1c-0.5-0.9-0.5-2.5,0-3.5l0.2-0.3l1.3-2.6c0.5-1,0.9-0.9,0.9,0.2v8
		C88.5,41,88.2,41,88.2,41z"/>
	<path class="st11" d="M51.3,6.1c-12.4,0-23.6,5.4-31.3,14c-2.5,2.8,0.8,4.6,4.5,3.3c3.8-1.3,7.8-2,11.9-2c2.6,0,5.2,0.3,7.7,0.8
		l-2.2-1.7l4.5,1.4c0.3-0.5,0.7-0.9,1.1-1.4c-1.2-1.6-2.6-1.7-2.2-4.3c0.8,2.5,1.8,1.6,3.7,3c0.5-0.3,1-0.6,1.6-0.8L50,13.7l2.2,4.2
		c0.6-0.1,1.2-0.2,1.7-0.2c0.3-2-0.6-3.1,1.5-4.5c-1.1,2.3,0.1,2.5,0.6,4.7c0.6,0.1,1.1,0.3,1.7,0.5l2.9-3.7l-1.4,4.5
		c0.5,0.3,0.9,0.7,1.4,1.1c1.6-1.2,1.7-2.6,4.3-2.2c-2.5,0.8-1.6,1.9-3,3.7c0.3,0.5,0.6,1,0.8,1.6l4.7-0.6L63.2,25
		c0.1,0.6,0.2,1.2,0.2,1.7c2,0.3,3.1-0.6,4.5,1.5c-2.3-1.1-2.5,0.1-4.7,0.6c-0.1,0.6-0.3,1.1-0.5,1.7l3.7,2.9L62.1,32
		c1.3,1.3,2.6,2.8,3.7,4.4l0,0l0,0c1.9-2.7,4.2-5.1,6.8-7.1c0.1-0.1,0.1-0.1,0.1-0.1l0,0l0,0c0,0,0,0,0.1,0c2.8-2.2,6-4,9.3-5.3
		c1.6-0.6,1.2-2.7,0.4-3.6C74.9,11.6,63.7,6.1,51.3,6.1z"/>
	<path class="st10" d="M80,78.9l-1.9-2L61.7,59c-1.1-1.4-2.8-4.1-1.1-6.8c1.1-1.8,6.8-1.4,6.8-1.4h26.1v-0.7c0,0-28.7-0.4-38.3,0
		c-1.1,0-2.2,0.2-3,0.4c-1.5,0.2-3.4,1.1-4.9,2.7L23.5,78.9c7.5,6.8,17.4,10.9,28.3,10.9C62.6,89.8,72.5,85.7,80,78.9z"/>
	<path class="st12" d="M42.3,49.6H9.7c0.4,10.3,4.5,19.6,11,26.6l23.1-22.7C45.4,52.1,44.3,49.6,42.3,49.6z"/>
	<path class="st13" d="M93.4,53.5H64.8c-1.8,0-2.8,2.2-1.4,3.5l19.5,19.1C88.4,69.9,92.2,62.1,93.4,53.5z"/>
	<g>
		<path class="st14" d="M55,50.1c-1.7,0.6-2.6,2-2.9,3h0.7c0.3-1,1.1-2.4,2.9-3H55z"/>
		<path class="st14" d="M52.6,54.1c0,0,0-0.2,0.1-0.6H52c-0.1,0.4-0.1,0.6-0.1,0.6l-0.1,7.1h1.1L52.6,54.1z"/>
		<polygon class="st14" points="52.8,65.7 51.6,65.7 51.5,69.7 52.9,69.7 		"/>
		<polygon class="st14" points="52.7,62.1 51.6,62.1 51.6,64.5 52.8,64.5 		"/>
		<polygon class="st14" points="51.3,80.1 51.1,90 53.3,90 53.1,80.1 		"/>
		<polygon class="st14" points="52.9,71.4 51.5,71.4 51.3,78.1 53.1,78.1 		"/>
	</g>
</g>
</svg>
